<svg width="100%" height="100%" viewBox="0 0 48 225" fill="none" xmlns="http://www.w3.org/2000/svg">
<g style="mix-blend-mode:multiply" clip-path="url(#clip0)">
<path d="M41.91 154C40.97 143.23 42.31 134.29 41 125.56H38.93C38.79 127.41 38.55 129.26 38.54 131.11C38.54 137.11 38.61 143.11 38.45 149.11C38.45 150.3 37.45 151.47 36.88 152.65C36.23 151.41 35.06 150.19 35.02 148.93C34.82 142.77 34.93 136.6 34.93 130.44C34.93 128.86 34.93 127.277 34.93 125.69L33.08 125.35C32.5527 126.712 32.1901 128.132 32 129.58C31.88 136.24 32 142.91 31.87 149.58C31.87 150.58 30.87 151.58 30.35 152.58C29.79 151.58 28.77 150.64 28.75 149.65C28.6 143.16 28.75 136.65 28.63 130.16C28.489 128.545 28.2215 126.943 27.83 125.37H26.24C25.9585 126.662 25.768 127.971 25.67 129.29C25.61 135.95 25.73 142.62 25.56 149.29C25.56 150.41 24.41 151.5 23.79 152.61C23.18 151.5 22.06 150.41 22.03 149.28C21.86 142.95 21.95 136.62 21.94 130.28C21.94 128.727 21.94 127.17 21.94 125.61L20.21 125.3C19.6665 126.549 19.2866 127.863 19.08 129.21C18.95 134.37 19.22 139.55 18.95 144.7C18.81 147.34 17.84 149.94 17.24 152.56C16.73 150.03 15.9 147.56 15.79 144.97C15.56 139.82 15.79 134.64 15.68 129.48C15.5249 128.053 15.237 126.643 14.82 125.27L13.11 125.42V152.3L10.97 152.95C10.33 151.7 9.16001 150.46 9.13001 149.19C8.94001 142.87 9.07001 136.53 9.02001 130.19C9.02001 128.68 8.74001 127.19 8.59001 125.65H6.74001V152.09L4.82001 153.09C3.82001 152.17 2.09001 151.27 2.07001 150.33C1.86001 141.04 1.94001 131.75 1.94001 122.14H45.67C45.67 131.69 45.74 141.14 45.55 150.56C45.53 151.43 43.78 152.27 41.91 154Z" fill="black"/>
<path d="M47.33 119.49H0.47998V75.3H47.33V119.49ZM6.09998 79.66V115.29H41.52V79.66H6.09998Z" fill="black"/>
<path d="M27.56 222.59C28.0454 221.299 28.3809 219.957 28.56 218.59C28.69 214.1 28.46 209.59 28.69 205.11C28.76 203.63 29.79 202.2 30.38 200.75C30.88 202.13 31.75 203.49 31.8 204.89C31.99 209.38 31.8 213.89 31.92 218.38C32.0705 219.788 32.3449 221.18 32.74 222.54L34.89 222.4C34.89 219.44 34.89 216.483 34.89 213.53C34.89 210.2 34.76 206.86 34.98 203.53C35.05 202.53 36.12 201.65 36.73 200.71C37.31 201.71 38.36 202.65 38.4 203.65C38.58 208.47 38.45 213.31 38.5 218.14C38.5 219.54 38.75 220.93 38.88 222.33L40.25 222.58C40.8189 221.349 41.2192 220.048 41.44 218.71C41.58 213.71 41.34 208.71 41.61 203.71C41.68 202.51 43.15 201.38 43.97 200.22L45.36 201.01V224.15H1.99997C1.99997 216.99 1.89997 209.9 2.11997 202.81C2.11997 201.93 3.84997 201.1 5.35997 199.7C7.14997 208.03 4.65997 215.49 6.98997 222.43H9.07997C9.07997 218.13 9.07997 213.83 9.07997 209.53C8.93736 207.355 8.96076 205.172 9.14997 203C9.29997 202 10.51 201.2 11.24 200.32L12.73 200.86V222.3L14.37 222.62C14.81 221.54 15.6 220.46 15.63 219.36C15.77 214.36 15.63 209.36 15.78 204.36C15.78 203.13 16.7 201.93 17.19 200.71C17.8 201.99 18.87 203.24 18.93 204.54C19.15 209.03 18.93 213.54 19.05 218.03C19.1654 219.525 19.3758 221.011 19.68 222.48H21.36C21.623 221.052 21.8033 219.609 21.9 218.16C21.97 213.33 21.84 208.5 22.01 203.67C22.01 202.67 23.01 201.67 23.58 200.67C24.26 201.67 25.49 202.73 25.53 203.79C25.72 209.91 25.62 216.03 25.62 222.15L27.56 222.59Z" fill="black"/>
<path d="M46.56 72.6299H0.449951C4.07995 67.0699 7.39995 61.8199 10.92 56.7199C11.43 55.9799 12.92 55.6599 13.92 55.5899C16.4 55.4299 18.92 55.5299 21.3899 55.5299C37.57 55.5399 39.63 56.9299 46.56 72.6299Z" fill="black"/>
<path d="M34.7401 35.88H12.8701L23.8701 0L34.7401 35.88Z" fill="black"/>
<path d="M0 198.12V191.46H47.56V198.12H0Z" fill="black"/>
<path d="M11.9399 53.0901V38.8501H35.6099V53.0901H11.9399Z" fill="black"/>
<path d="M47.52 155.08V161.56H0.209961V155.08H47.52Z" fill="black"/>
<path d="M25.61 176.27C25.61 179.58 25.75 182.9 25.52 186.2C25.45 187.15 24.34 188.03 23.7 188.94C23.12 188.14 22.05 187.36 22.03 186.55C21.89 179.763 21.89 172.977 22.03 166.19C22.03 165.43 23.22 164.7 23.85 163.96C24.43 164.76 25.47 165.53 25.52 166.35C25.73 169.64 25.61 173 25.61 176.27Z" fill="black"/>
<path d="M12.6699 176.59C12.6699 179.9 12.7799 183.21 12.5899 186.51C12.5899 187.34 11.5899 188.12 10.9899 188.92C10.3399 188.17 9.1399 187.44 9.1299 186.68C8.9899 179.907 8.9899 173.13 9.1299 166.35C9.1299 165.53 10.2199 164.74 10.7999 163.93C11.4199 164.84 12.5199 165.72 12.5799 166.68C12.8099 170 12.6799 173.28 12.6699 176.59Z" fill="black"/>
<path d="M36.3801 163.56C37.0901 164.56 38.3801 165.5 38.3801 166.49C38.5601 173.14 38.5301 179.79 38.3801 186.49C38.3801 187.32 37.3001 188.13 36.7201 188.95C36.1101 188.18 34.9801 187.41 34.9701 186.63C34.8401 179.18 34.8901 171.73 34.8901 164.28L36.3801 163.56Z" fill="black"/>
<path d="M41.5401 188.16C41.5401 181.06 41.4501 173.97 41.6401 166.87C41.6401 165.87 43.0001 164.87 43.7301 163.87C44.3801 164.94 45.5601 166 45.6001 167.08C45.7801 173.36 45.8101 179.65 45.6001 185.92C45.6001 187.08 44.0401 188.19 43.2001 189.32L41.5401 188.16Z" fill="black"/>
<path d="M5.99995 164.52C5.99995 171.82 6.06995 179.12 5.90995 186.41C5.90995 187.26 4.56995 188.09 3.85995 188.92C3.21995 187.99 2.05995 187.07 2.02995 186.12C1.86995 179.64 1.82995 173.12 2.02995 166.66C2.02995 165.54 3.48995 164.46 4.26995 163.37L5.99995 164.52Z" fill="black"/>
<path d="M31.9 176.27C31.9 179.59 32.01 182.92 31.84 186.27C31.84 187.17 30.92 188.02 30.43 188.89C29.84 188.11 28.77 187.35 28.75 186.56C28.62 179.75 28.63 172.93 28.75 166.12C28.75 165.4 29.67 164.7 30.16 163.99C30.74 164.77 31.78 165.52 31.83 166.34C32 169.61 31.9 172.94 31.9 176.27Z" fill="black"/>
<path d="M19.0001 176.72C19.0001 180.05 19.0801 183.38 18.9301 186.72C18.9301 187.46 18.0301 188.17 17.5501 188.89C16.9501 188.13 15.8301 187.38 15.8201 186.61C15.6801 179.79 15.7001 172.97 15.8201 166.15C15.8201 165.42 16.7101 164.71 17.1801 163.99C17.7901 164.75 18.8901 165.48 18.9301 166.27C19.1001 169.72 19.0001 173.22 19.0001 176.72Z" fill="black"/>
<path d="M6.1001 79.6599H41.5201V115.29H6.1001V79.6599ZM24.1001 82.6599C22.1375 82.5921 20.1812 82.9174 18.3462 83.6166C16.5112 84.3158 14.8345 85.3749 13.4148 86.7316C11.9951 88.0883 10.8609 89.7152 10.0791 91.5166C9.29726 93.3179 8.88351 95.2575 8.86217 97.2211C8.84083 99.1847 9.21234 101.133 9.95485 102.951C10.6974 104.769 11.7959 106.42 13.1858 107.807C14.5757 109.194 16.229 110.289 18.0484 111.028C19.8678 111.767 21.8165 112.135 23.7801 112.11C27.6854 112.152 31.4476 110.642 34.2391 107.91C37.0306 105.179 38.6227 101.45 38.6651 97.5449C38.7075 93.6396 37.1968 89.8774 34.4654 87.0859C31.7339 84.2944 28.0054 82.7023 24.1001 82.6599Z" fill="white"/>
<path d="M24.1099 82.71C28.0152 82.7524 31.7437 84.3445 34.4752 87.1359C37.2066 89.9274 38.7173 93.6897 38.6749 97.595C38.6325 101.5 37.0404 105.229 34.2489 107.96C31.4574 110.692 27.6952 112.202 23.7899 112.16C21.8263 112.185 19.8775 111.817 18.0582 111.078C16.2388 110.34 14.5855 109.244 13.1956 107.857C11.8057 106.47 10.7071 104.819 9.96464 103.001C9.22214 101.183 8.85063 99.2347 8.87196 97.2711C8.8933 95.3075 9.30705 93.368 10.0889 91.5666C10.8707 89.7652 12.0049 88.1384 13.4246 86.7817C14.8443 85.425 16.521 84.3659 18.356 83.6667C20.191 82.9674 22.1473 82.6421 24.1099 82.71ZM36.9999 97.58C37.051 94.0683 35.7142 90.6784 33.28 88.1468C30.8458 85.6152 27.5109 84.1465 23.9999 84.06C20.4808 84.0677 17.1068 85.4637 14.611 87.9446C12.1151 90.4255 10.6989 93.791 10.6699 97.31C10.6522 99.0388 10.9751 100.754 11.6204 102.358C12.2656 103.962 13.2204 105.424 14.4304 106.659C15.6403 107.894 17.0817 108.878 18.6721 109.556C20.2626 110.234 21.971 110.592 23.6999 110.61C25.4287 110.628 27.1442 110.305 28.7482 109.66C30.3522 109.014 31.8135 108.059 33.0485 106.849C34.2835 105.64 35.2681 104.198 35.9461 102.608C36.6241 101.017 36.9822 99.3088 36.9999 97.58Z" fill="black"/>
<path d="M37 97.5801C37.0278 99.3365 36.7037 101.081 36.0468 102.71C35.3899 104.339 34.4134 105.821 33.1749 107.066C31.9365 108.312 30.4611 109.298 28.8358 109.964C27.2105 110.631 25.4682 110.965 23.7116 110.948C21.955 110.931 20.2196 110.562 18.6078 109.863C16.996 109.165 15.5404 108.15 14.3268 106.88C13.1133 105.61 12.1662 104.11 11.5416 102.468C10.917 100.826 10.6274 99.0756 10.69 97.3201C10.7163 93.8028 12.1286 90.4377 14.6205 87.9553C17.1123 85.4728 20.4826 84.0731 24 84.0601C27.5109 84.1466 30.8459 85.6153 33.2801 88.1469C35.7143 90.6785 37.0511 94.0684 37 97.5801ZM33.36 94.8301C32.8621 92.645 31.6496 90.6885 29.9144 89.2702C28.1791 87.852 26.0204 87.0531 23.78 87.0001C21.11 86.8901 16.12 88.3201 15.78 93.3201C14.25 99.5001 15.68 103.78 19.95 105.76C24.46 107.85 28.7 106.43 31.8 101.76L33.36 94.8301Z" fill="white"/>
<path d="M31.7601 101.81C28.6601 106.45 24.4101 107.87 19.9101 105.81C15.6501 103.81 14.2201 99.5601 15.7401 93.3701L21.8701 88.3701L23.2601 89.3701L21.5401 95.9301L20.5401 95.4301L23.1501 100.61L30.6201 101.75L31.7601 101.81Z" fill="white"/>
<path d="M31.7601 101.81L30.6501 101.73C30.2101 101.06 29.9201 100.06 29.3101 99.7801C24.3101 97.5501 24.1701 93.5901 25.5201 87.8601L33.3501 94.8601L31.7601 101.81Z" fill="white"/>
<path d="M33.34 94.8299L25.51 87.8299C24.17 93.5599 24.27 97.5199 29.3 99.7499C29.91 100.02 30.2 101.03 30.64 101.7L23.17 100.56L20.56 95.3799L21.56 95.8799L23.28 89.3199L21.89 88.3199L15.76 93.3199C16.14 88.3199 21.13 86.8899 23.76 86.9999C26.0004 87.053 28.1592 87.8519 29.8944 89.2701C31.6296 90.6883 32.8421 92.6449 33.34 94.8299Z" fill="black"/>
</g>
<defs>
<clipPath id="clip0">
<rect width="47.56" height="224.18" fill="white"/>
</clipPath>
</defs>
</svg>
