<svg width="100%" height="100%" viewBox="0 0 60 137" fill="none" xmlns="http://www.w3.org/2000/svg">
<g style="mix-blend-mode:multiply" clip-path="url(#clip0)">
<path d="M53.8401 136.3H5.57007V29.3H53.8401V136.3ZM50.1901 33.3H9.42007V134.78H50.1901V33.3Z" fill="#800303"/>
<path d="M57.0001 12.75H2.58008C4.40008 4.94 15.8501 -0.160003 30.4901 -2.89828e-06C44.5201 0.159997 55.4001 5.19 57.0001 12.75ZM25.1901 5C25.4101 11.44 29.1301 10.19 31.7401 9.92C32.9501 9.79 33.9801 7.92 35.0901 6.83L34.1901 5H25.1901Z" fill="#800303"/>
<path d="M4.12 135.88C0.0499997 137.47 0 135.2 0 132.61C0 118.45 0 104.3 0 90.1399C0 70.0066 0 49.8666 0 29.7199C4.9 27.7199 4.09 31.2099 4.09 33.6099C4.09 61.0899 4.09 88.5699 4.09 116.05C4.12 122.68 4.12 129.31 4.12 135.88Z" fill="#800303"/>
<path d="M59.9199 82.76C59.9199 99.24 59.9199 115.76 59.8299 132.19C59.8299 133.62 58.5799 135.04 57.9199 136.47C57.2099 135.11 55.9199 133.76 55.8699 132.4C55.7566 99.28 55.7566 66.16 55.8699 33.04C55.8699 31.71 57.2399 30.39 57.9699 29.04C58.6199 30.46 59.8199 31.88 59.8299 33.31C59.9999 49.81 59.9199 66.29 59.9199 82.76Z" fill="#800303"/>
<path d="M4.26001 27.64V20.52H55.46V27.64H4.26001ZM5.50001 24.35L6.67001 25.77H53.42L54.22 24.43C53.07 23.64 51.92 22.17 50.76 22.16C36.76 22 22.79 22 8.85001 22.16C7.72001 22.16 6.62001 23.58 5.50001 24.35Z" fill="#800303"/>
<path d="M2.78003 15H56.88V15.59H2.79003L2.78003 15Z" fill="#800303"/>
<path d="M3.84009 18H55.7501V18.57H3.85009L3.84009 18Z" fill="#800303"/>
<path d="M50.1899 33.26V134.78H9.41992V33.26H50.1899ZM11.4399 34.87V133.16H48.4899V34.87H11.4399Z" fill="#800303"/>
<path d="M25.1899 5H34.1899L35.0899 6.82C33.9799 7.9 32.9499 9.82 31.7399 9.91C29.1199 10.16 25.3999 11.41 25.1899 5Z" fill="#800303"/>
<path d="M5.5 24.3499C6.61 23.5799 7.72 22.1699 8.84 22.1499C22.84 21.9966 36.81 21.9966 50.75 22.1499C51.91 22.1499 53.06 23.6299 54.21 24.4199L53.41 25.7599H6.67L5.5 24.3499Z" fill="#800303"/>
<path d="M11.4399 34.8701H48.4899V133.16H11.4399V34.8701ZM14.2699 131.08C23.6299 131.08 32.7599 131.08 41.8799 131.08C44.1999 131.08 46.1099 131.08 46.1299 127.79C46.1299 124.65 44.9199 123.79 41.9699 123.79C34.4699 123.93 26.9699 123.79 19.4699 123.79C13.5199 123.89 13.5199 123.9 14.2699 131.08ZM45.7199 86.6601V71.3501H36.5599V86.6601H45.7199ZM34.5299 86.5801V71.3401H25.4599V86.5701L34.5299 86.5801ZM14.2599 71.3101V86.6201H23.1999V71.3101H14.2599ZM36.3399 103.1H45.6599V88.2701H36.3399V103.1ZM25.3399 88.1801V103H34.5699V88.1801H25.3399ZM23.1899 103.18V88.2501H14.0699V103.16L23.1899 103.18ZM45.8899 105.18H36.4399V119.78H45.8599L45.8899 105.18ZM36.3199 52.7401H45.7999V38.1401H36.3199V52.7401ZM34.5199 38.0901H25.2799V52.7701H34.5199V38.0901ZM34.5199 69.7901V54.8801H25.3699V69.7901H34.5199ZM45.6599 69.7001V55.0001H36.4599V69.7001H45.6599ZM25.3299 105.08V119.83H34.5599V105.08H25.3299ZM14.0899 69.6001H23.3199V54.8801H14.0899V69.6001ZM23.3499 105.16H14.1199V119.89H23.3499V105.16ZM23.3499 38.0901H14.0999V52.7601H23.3399L23.3499 38.0901Z" fill="#800303"/>
</g>
<defs>
<clipPath id="clip0">
<rect width="59.93" height="136.47" fill="white"/>
</clipPath>
</defs>
</svg>
