<svg width="100%" height="100%" viewBox="0 0 138 91" fill="none" xmlns="http://www.w3.org/2000/svg">
<g style="mix-blend-mode:multiply" clip-path="url(#clip0)">
<path d="M133.55 23.2L133.02 32.7H116.89V34.32H133V43.2H116.81V44.76H133L133.43 53.67C127.85 52.24 122.43 52.91 116.92 53.4L117.03 55.84L133.45 54.3C133.51 59.24 131.94 65.07 134.04 68.89C136.86 74.05 134.9 78.57 135.98 83.6H111.98C112.98 78.09 109.25 76.27 105.32 74.2C97.67 70.2 90.23 65.73 82.64 61.6C80.09 60.21 78.64 58.68 80.44 55.24L115.44 70.94V32H23V70.9L57.64 55.28C59.97 58.28 58.64 59.92 56.11 61.28C48.26 65.64 40.47 70.13 32.55 74.35C28.88 76.35 25.43 78.09 26.66 83.49H6.39V84.23H27.69L28 90.15H0C5 83.48 0.93 76.15 4.33 69.05C6.55 64.45 5 58 5 52.37C5 40.77 5 29.17 5 16.19C7 17.64 8.85 18.57 8.74 19.05C8.42 20.59 7.34 22 6.4 23.65C10.46 26.92 10.48 30.75 5.91 33.46C10.45 37.68 10.43 40.67 5.83 43.94C10.5 47.42 10.53 51.07 5.47 54.17C10.84 56.17 9.04 60.54 9.7 64.34V55.64H17.8L18.21 62L20.73 53.51C17.51 51.11 17.53 47.01 21.73 44.08C17.57 40.6 17.58 36.85 21.73 33.84C17.53 30.38 17.52 26.19 21.02 23.84C20.2435 22.1758 19.5689 20.466 19 18.72C18.92 18.45 20.31 17.72 21 17.28L24.07 22.37C38.41 21.16 53.97 24.37 70.07 20.28C72.32 20.78 75.71 22.1 79.13 22.18C91.13 22.45 103.13 22.28 115.38 22.28L116.2 17.28L120.58 17.68L124.58 -0.0400391L128.51 17.63L132.87 17.15L133.52 22.63H116.69L116.86 25.1L133.55 23.2ZM73.55 30.2C72.69 27.2 72.31 24.91 71.24 22.96C70.92 22.38 67.66 22.43 67.42 22.96C66.42 25.09 66.12 27.52 65.42 30.21L73.55 30.2ZM77.46 25.83V25.92H113.85V25.83H77.46ZM27.37 25.83L27.44 25.92H60.66V25.83H27.37Z" fill="black"/>
<path d="M137.12 90.23H110.67C109.15 85.46 110.79 83.71 115.5 83.91C121.11 84.14 126.75 83.91 132.37 83.98C137.64 84 137.72 84.19 137.12 90.23Z" fill="black"/>
<path d="M18.4401 21.9999H9.31006L13.2401 1.99992L14.3401 1.91992L18.4401 21.9999Z" fill="black"/>
<path d="M17.7701 32.2401H10.0801V24.8301H17.7701V32.2401Z" fill="black"/>
<path d="M9.87012 52.7899V45.5999H17.8001V52.7899H9.87012Z" fill="black"/>
<path d="M9.94995 42.1701V35.3301H17.73V42.1701H9.94995Z" fill="black"/>
<path d="M133.48 54.2999L117.06 55.8399L116.95 53.3999C122.42 52.9099 127.89 52.2399 133.46 53.6699C133.506 53.7681 133.531 53.8745 133.535 53.9828C133.538 54.0911 133.519 54.199 133.48 54.2999Z" fill="white"/>
<path d="M133.55 23.1999L116.86 25.1399L116.69 22.6699H133.52C133.586 22.8389 133.597 23.0246 133.55 23.1999Z" fill="white"/>
<path d="M73.5299 30.2399H65.4399C66.0999 27.5499 66.4399 25.1199 67.4399 22.9899C67.6799 22.4599 70.9399 22.4099 71.2599 22.9899C72.2899 24.9499 72.6599 27.2799 73.5299 30.2399Z" fill="white"/>
<path d="M77.4399 25.8699H113.79V25.9999H77.3899L77.4399 25.8699Z" fill="white"/>
<path d="M27.3501 25.8699H60.6601V25.9999H27.4201L27.3501 25.8699Z" fill="white"/>
</g>
<defs>
<clipPath id="clip0">
<rect width="137.37" height="90.23" fill="white"/>
</clipPath>
</defs>
</svg>
