<svg width="100%" height="100%" viewBox="0 0 206 141" fill="none" xmlns="http://www.w3.org/2000/svg">
<g style="mix-blend-mode:multiply" clip-path="url(#clip0)">
<path d="M154 101.66L132 89.9201C132 85.0401 132.27 79.4501 131.94 73.9201C131.242 62.8973 127.293 52.3287 120.59 43.5501C118.59 40.8401 118.84 39.1001 120.72 36.6401C126.57 29.0301 134.72 27.0601 143.67 26.7901C146.92 26.6901 150.24 27.4801 152.12 23.4301C152.41 22.8001 156.12 22.8501 157.32 23.7901C158.83 25.0001 159.32 27.4401 160.44 29.6201C161.66 29.7201 163.14 29.7801 164.61 29.9901C167.53 30.4001 168.75 31.9901 168.82 35.0801C168.92 39.0801 169.82 43.0801 170.03 47.0801C170.29 52.0801 170.77 56.7801 174.89 60.4301C175.65 61.1001 175.49 63.2101 175.22 64.5401C174.51 68.0001 173.11 71.3401 172.72 74.8201C172.28 78.8201 170.8 81.9401 166.81 82.3101C158.81 83.0501 156.31 88.2501 155.17 94.9801C154.77 97.1601 154.39 99.4001 154 101.66Z" fill="black"/>
<path d="M70.13 19.58C103.76 19.84 130.6 46.81 130.32 80.07C130.286 91.9984 126.717 103.649 120.063 113.549C113.408 123.449 103.968 131.154 92.9357 135.689C81.9032 140.225 69.7736 141.388 58.0804 139.03C46.3871 136.673 35.6553 130.902 27.2416 122.446C18.8279 113.991 13.1102 103.23 10.8111 91.5255C8.51212 79.8207 9.7351 67.6971 14.3255 56.6872C18.9158 45.6774 26.6674 36.2757 36.6004 29.6708C46.5333 23.0659 58.2015 19.5543 70.13 19.58ZM124 80.07C124.25 50.48 100.38 26 71 25.68C40.68 25.35 16.07 49.06 15.73 78.93C15.39 108.8 39.52 133.68 69.36 133.93C76.4933 134.015 83.5726 132.685 90.1891 130.018C96.8055 127.351 102.828 123.399 107.908 118.391C112.989 113.383 117.027 107.418 119.789 100.841C122.551 94.2632 123.982 87.2037 124 80.07Z" fill="black"/>
<path d="M103.68 27L99 24.38C111.9 5.47002 145.88 -7.10998 175.74 10.27C204.09 26.76 214 63.65 197.84 92C180.6 122.2 143.89 129 120.37 116.86L123.37 112.06C138.79 118.14 154 118.19 168.89 110.94C180.131 105.569 189.12 96.4094 194.28 85.07C205 62.22 198.09 34.65 177.93 19.2C159.1 4.76002 127.76 1.76002 103.68 27Z" fill="black"/>
<path d="M55.38 18.8101C18.63 29.2301 5.81002 60.1901 7.54002 84.9101C9.36002 110.91 28.35 133.12 56.03 140.24C41.6 141.89 21.18 129.91 12 116.15C-2.44998 94.5901 -4.06998 72.0001 8.36002 49.2401C18.41 30.8201 34.55 20.8801 55.38 18.8101Z" fill="black"/>
<path d="M133.19 0C113.43 6.33 110.39 8.16 95.8199 22.83L90.9099 20.72C102.51 7.75 116.38 0.89 133.19 0Z" fill="black"/>
<path d="M117.35 119.86L132.47 124.21L132.26 125.28L116.85 122.06L117.35 119.86Z" fill="black"/>
<path d="M124 80.0699C123.977 87.2029 122.541 94.2606 119.774 100.835C117.008 107.41 112.967 113.372 107.884 118.376C102.801 123.38 96.7764 127.327 90.1591 129.99C83.5417 132.653 76.4624 133.978 69.33 133.89C39.5 133.68 15.33 108.94 15.7 78.8899C16.07 48.8399 40.68 25.3499 71 25.6799C100.41 25.9999 124.28 50.4799 124 80.0699ZM39.9 48.2599C39.9 61.7599 39 74.7899 40.12 87.6499C41.56 104.2 51.29 115.37 66.67 121.49C68.2855 122.198 70.0924 122.343 71.8 121.9C85.59 116.75 96.36 107.8 98.4 92.8099C100.4 78.4099 99.74 63.66 100.21 49.0699C100.21 48.8399 99.79 48.5899 99.48 48.2599H39.9Z" fill="white"/>
<path d="M39.9001 48.26H99.4801C99.7901 48.59 100.22 48.84 100.21 49.07C99.7301 63.67 100.36 78.42 98.4001 92.81C96.4001 107.81 85.6001 116.75 71.8001 121.9C70.0925 122.343 68.2856 122.198 66.6701 121.49C51.3001 115.36 41.5701 104.19 40.1201 87.65C39.0001 74.8 39.9001 61.77 39.9001 48.26ZM67.0001 54H44.8201V80.64H67.0001V54ZM95.0701 54H73.0001V80.61H95.0701V54ZM46.0001 86.7C45.8501 98.7 55.0001 111.09 67.3201 115.34C67.3201 107.21 67.3201 99.28 67.3201 91.34C67.3201 89.88 67.1501 88.41 67.0401 86.69L46.0001 86.7ZM72.7901 115.1C84.3701 111.6 93.2801 99.65 93.9401 86.82H72.7801L72.7901 115.1Z" fill="black"/>
<path d="M67.0001 54V80.64H44.8201V54H67.0001Z" fill="white"/>
<path d="M95.07 54V80.61H73V54H95.07Z" fill="white"/>
<path d="M46.0001 86.7H67.0001C67.1101 88.42 67.2701 89.89 67.2801 91.35C67.2801 99.28 67.2801 107.21 67.2801 115.35C55.0001 111.09 45.8401 98.67 46.0001 86.7Z" fill="white"/>
<path d="M72.78 115.1V86.8201H93.93C93.27 99.6501 84.36 111.6 72.78 115.1Z" fill="white"/>
</g>
<defs>
<clipPath id="clip0">
<rect width="205.61" height="140.39" fill="white"/>
</clipPath>
</defs>
</svg>
