<svg width="100%" height="100%" viewBox="0 0 113 136" fill="none" xmlns="http://www.w3.org/2000/svg">
<g style="mix-blend-mode:multiply" clip-path="url(#clip0)">
<path d="M85.14 91.29L78.06 96.06C81.18 98.82 83.66 102.15 80.6 105.84C79.23 107.49 75.25 108.99 73.88 108.17C71.39 106.68 69.96 103.41 67.88 100.63C67.4715 101.362 67.271 102.192 67.3 103.03C68.43 110.09 69.76 117.12 71.01 124.16C71.29 125.74 71.49 127.34 71.77 129.23H65.85L60.51 101.63H50.51L45.26 129.22H39.1L43 106.61C38.68 108.95 34.7 110.39 31.73 105.98C29.12 102.12 31.29 99.09 34.49 96.27L27.19 91.39C26.05 95.39 24 98.76 19.64 97.57C18.4791 97.1486 17.4245 96.4782 16.5504 95.6057C15.6762 94.7333 15.0037 93.6801 14.58 92.52C13.39 88.18 16.63 86.06 20.71 84.88L16 78C13.23 81 9.99998 83.37 6.41999 80.59C4.73999 79.28 3.12999 75.37 3.90999 73.97C5.30999 71.44 8.51998 69.92 10.98 67.97L12.24 69L10.56 60.6C6.73999 62.93 2.99999 63.42 0.769985 59.54C0.248446 58.3964 -0.0139284 57.1517 0.0016302 55.8949C0.0171888 54.6382 0.310296 53.4003 0.859985 52.27C2.99999 48.67 6.66998 49 10.49 51.33L12 43.56L10.81 44.56C8.35999 42.62 5.02998 41.12 3.80998 38.56C2.99998 37 4.86999 32.34 6.48998 31.77C9.14999 30.83 12.58 32.09 15.68 32.42L15.83 33.94L20.47 27.19C16.47 25.78 13.19 23.54 14.63 19.04C15.0659 17.9518 15.7296 16.9694 16.5764 16.1588C17.4233 15.3481 18.4338 14.728 19.54 14.34C23.88 13.2 25.94 16.45 27.19 20.34L33.61 16.09L32.12 16C31.86 12.72 30.84 9.22001 31.67 6.24001C32.07 4.82001 36.67 3.03001 38.17 3.81001C40.72 5.16001 42.3 8.36001 44.29 10.81L43.29 11.93L51.06 10.39L49.58 9.77001C50.41 6.77001 50.49 3.11001 52.35 1.01001C53.52 -0.309986 57.89 -0.219986 59.85 0.910014C63.49 3.01001 62.85 6.77001 60.85 10.35L68.49 11.9C69 7.91001 69.29 3.68001 74 3.51001C76.22 3.43001 80 4.95001 80.45 6.51001C81.23 9.29001 80.02 12.62 79.64 15.73L78.14 15.82L84.87 20.36C86.31 16.42 88.43 13 93 14.42C94.0877 14.8532 95.0705 15.5134 95.8827 16.3567C96.695 17.2 97.3179 18.2068 97.71 19.31C98.92 23.66 95.77 25.82 91.81 27.12L96.17 33.88C98.98 30.88 102.38 28.54 105.95 31.46C107.61 32.81 109.12 36.77 108.32 38.17C106.87 40.68 103.62 42.17 101.13 44.06L100.04 43.06L101.77 51.48C105.49 49.27 109.33 48.34 111.6 52.25C112.153 53.4474 112.431 54.7537 112.412 56.0725C112.393 57.3914 112.078 58.6891 111.49 59.87C109.29 63.44 105.6 62.87 101.78 60.35L100.09 68.17L101.09 67.17C103.67 69.36 106.99 71.17 108.52 73.92C109.25 75.24 107.05 79.84 105.31 80.45C102.82 81.32 99.52 79.88 96.57 79.45L96.43 77.78L91.56 84.78C95.56 86.11 99.11 88.23 97.71 92.78C97.2348 93.9245 96.5136 94.9504 95.5977 95.7851C94.6818 96.6198 93.5935 97.2428 92.41 97.61C88.24 98.55 86 95.68 85.14 91.29ZM66.77 97.57C89.19 91.1 102 71.1 98.6 48.53C95.47 28.1 76 12.1 55 12.67C32.88 13.26 15.37 30.21 13.14 53.17C11.3 72.57 25.63 92.74 44.65 97L45.6 92.87C43.6 92.01 41.86 91.34 40.21 90.59C23.86 83.25 15.09 65.71 18.72 47.7C22.12 30.83 37.72 17.98 55.14 17.64C73.62 17.27 90 30.16 93.49 47.78C97.23 66.78 87.43 84.78 69.59 91.6C66.74 92.68 64.09 93.53 66.77 97.57ZM62.69 57.16L62.21 57.99L88.55 73.15L92.55 57.15L62.69 57.16ZM23.78 73.16L50 57.95L49.5 57.17H19.7L23.78 73.16ZM87.95 75.53L61 60L60.34 60.71L75.79 87.39L87.95 75.53ZM25 75.2L36.9 86.8L51.59 61.08L50.79 60.32L25 75.2ZM51.05 51.52L51.83 50.77L36.83 24.86L24.83 36.48L51.05 51.52ZM75.86 23.94L60.42 50.89L61.22 51.52L87.22 36.41L75.86 23.94ZM61.44 54.21H92.56L88.38 38.7L61.44 54.21ZM49.33 54.4L49.74 53.64L23.81 38.64L19.67 54.4H49.33ZM57.85 19.4V50.57L73.33 23.64L57.85 19.4ZM54.67 19.26L38.93 23.71L54.66 50.86L54.67 19.26ZM73.2 87.81L61.51 67.63L60.7 68L65 90.85L73.2 87.81ZM46.15 90.43L49.6 71.38L48.75 71L39.16 87.77L46.15 90.43ZM110.55 56L111.4 54.5C109.81 53.5 108.21 51.79 106.64 51.81C105.07 51.83 103.64 53.68 102.15 54.73L102.9 56H110.55ZM9.66998 56L10.4 54.2C8.56998 53.35 6.74999 51.87 4.90999 51.86C3.67999 51.86 2.43999 53.92 1.19999 55.05L1.99999 56H9.66998ZM59.67 98.6C59.13 94.05 58.83 93.6 54.41 94.22C53.07 94.4 51.97 96.22 50.76 97.34L51.64 98.6H59.67ZM79.28 9.38001L80 7.72001C78.23 6.78001 76.43 5.09001 74.68 5.13001C73.24 5.13001 71.84 7.24001 70.42 8.41001L71.18 9.41001L79.28 9.38001ZM13.58 36.45L14.02 34.95C12.35 34.13 10.52 32.47 9.01999 32.73C7.38999 33.02 6.06999 35.09 4.61999 36.38L5.53999 37.65L13.58 36.45ZM24.25 20.38L25.17 18.87C23.47 17.87 21.78 16.09 20.08 16.1C18.63 16.1 17.19 18.1 15.75 19.29L16.5 20.38H24.25ZM106.68 74.85L107.19 73.21C105.56 72.34 103.84 70.67 102.32 70.82C100.8 70.97 99.39 72.94 97.93 74.11L98.74 75.6L106.68 74.85ZM95.48 20.35L96.41 18.94C94.72 17.94 93.05 16.14 91.34 16.1C89.93 16.1 88.47 18.1 87.04 19.21L87.79 20.35H95.48ZM4.99999 73.91L5.90999 75.35H13.63L14.3 74.12C12.76 73.12 11.24 71.24 9.66998 71.2C8.09999 71.16 6.58999 72.93 4.99999 73.91ZM40.62 9.43001L41.28 8.12001C39.62 7.12001 37.98 5.45001 36.28 5.41001C34.91 5.41001 33.48 7.31001 32.08 8.41001L32.89 9.47001L40.62 9.43001ZM87.15 89.88L87.84 91.17H95.84L96.28 89.67C94.73 88.87 93.17 87.41 91.64 87.45C90.11 87.49 88.64 89 87.15 89.88ZM24.42 91.51L25.09 90.15C23.42 89.15 21.76 87.51 20.09 87.49C18.71 87.49 17.3 89.42 15.9 90.49L16.72 91.49L24.42 91.51ZM71.05 100.79L71.87 102.29H79.52L80.15 101.06C78.73 100.06 77.31 98.36 75.9 98.36C74.28 98.38 72.67 99.92 71.05 100.8V100.79ZM32.32 100.79L32.99 102.38H41.12L41.71 101.18C40.26 100.18 38.82 98.5 37.35 98.48C35.69 98.52 34 100 32.32 100.85V100.79ZM60 5.42001L60.9 4.18001C59.3 3.18001 57.71 1.44001 56.1 1.42001C54.49 1.40001 53 3.18001 51.39 4.16001L52 5.42001H60ZM106.54 36.31L107.19 34.94C105.61 34.02 104.02 32.36 102.47 32.39C100.92 32.42 99.54 34.21 98.08 35.23L98.84 36.31H106.54Z" fill="black"/>
<path d="M47.5301 135.35H36.0601V131.35C45.0001 129.37 47.6901 130.23 47.5301 135.35Z" fill="black"/>
<path d="M63.2799 135.33C62.9799 130.01 63.1999 129.93 74.5199 131.07L74.7899 135.33H63.2799Z" fill="black"/>
<path d="M66.7701 97.57C64.09 93.57 66.7701 92.68 69.5801 91.57C87.4301 84.77 97.2201 66.74 93.4801 47.75C90.0001 30.16 73.6201 17.27 55.1401 17.63C37.6801 17.97 22.1401 30.82 18.7201 47.69C15.0901 65.69 23.8701 83.24 40.2001 90.6C41.8601 91.35 43.5501 92.02 45.5901 92.88L44.6501 97C25.6501 92.71 11.3001 72.54 13.1801 53.14C15.4101 30.14 32.9201 13.23 55.0401 12.64C76.0001 12.1 95.4701 28.1 98.6001 48.53C102 71.1 89.19 91.1 66.7701 97.57Z" fill="white"/>
<path d="M62.69 57.1599H92.51L88.51 73.1599L62.21 57.9999L62.69 57.1599Z" fill="white"/>
<path d="M23.77 73.1999L19.7 57.2H49.49L49.99 57.9799L23.77 73.1999Z" fill="white"/>
<path d="M87.9401 75.57L75.7901 87.39L60.3501 60.74L61.0001 60L87.9401 75.57Z" fill="white"/>
<path d="M25 75.2001L50.79 60.3201L51.59 61.0801L36.9 86.8001L25 75.2001Z" fill="white"/>
<path d="M51.05 51.5199L24.8 36.5199L36.8 24.8999L51.8 50.8099L51.05 51.5199Z" fill="white"/>
<path d="M75.8599 23.9399L87.2099 36.4099L61.2099 51.5199L60.4099 50.8899L75.8599 23.9399Z" fill="white"/>
<path d="M61.4399 54.2099L88.3799 38.7L92.5599 54.2099H61.4399Z" fill="white"/>
<path d="M49.3299 54.3999H19.6699L23.8199 38.6699L49.7499 53.6699L49.3299 54.3999Z" fill="white"/>
<path d="M57.8501 19.3899L73.3301 23.6399L57.8501 50.5699V19.3899Z" fill="white"/>
<path d="M54.6599 19.24V50.86L38.9299 23.71L54.6599 19.24Z" fill="white"/>
<path d="M73.1999 87.8101L64.97 90.8101L60.7 68.0001L61.5099 67.6101L73.1999 87.8101Z" fill="white"/>
<path d="M46.1499 90.43L39.1499 87.77L48.7499 71L49.5999 71.33L46.1499 90.43Z" fill="white"/>
<path d="M9.66994 56.0001H1.99994L1.18994 55.0001C2.42994 53.8601 3.66994 51.8001 4.89994 51.8101C6.73994 51.8101 8.55994 53.3001 10.3899 54.1501L9.66994 56.0001Z" fill="white"/>
<path d="M59.62 98.5899H51.62L50.74 97.3299C51.95 96.2399 53.06 94.3899 54.39 94.2099C58.78 93.5999 59.08 93.9999 59.62 98.5899Z" fill="white"/>
<path d="M13.5799 36.45L5.57991 37.65L4.65991 36.38C6.09991 35.08 7.40991 33 8.99991 32.73C10.4799 32.47 12.2999 34.13 13.9999 34.95L13.5799 36.45Z" fill="white"/>
<path d="M24.25 20.3801H16.49L15.74 19.2901C17.18 18.1501 18.63 16.1001 20.07 16.1001C21.76 16.1001 23.46 17.8701 25.16 18.8701L24.25 20.3801Z" fill="white"/>
<path d="M106.67 74.85L98.7299 75.6L97.9199 74.11C99.3699 72.94 100.75 70.98 102.31 70.82C103.87 70.66 105.55 72.34 107.18 73.21L106.67 74.85Z" fill="white"/>
<path d="M95.47 20.3499H87.79L87 19.2099C88.44 18.0999 89.89 16.0699 91.3 16.0999C93.01 16.0999 94.68 17.9099 96.37 18.9399L95.47 20.3499Z" fill="white"/>
<path d="M5 73.9101C6.56 72.9101 8.15 71.1501 9.68 71.1901C11.21 71.2301 12.77 73.0601 14.31 74.1101L13.64 75.3401H5.95L5 73.9101Z" fill="white"/>
<path d="M87.1499 89.88C88.6499 89.01 90.1499 87.48 91.6399 87.44C93.1299 87.4 94.7299 88.86 96.2799 89.66L95.8399 91.16H87.8399L87.1499 89.88Z" fill="white"/>
<path d="M24.4199 91.51H16.7099L15.8899 90.51C17.2899 89.44 18.6999 87.51 20.0799 87.51C21.7599 87.51 23.4199 89.21 25.0799 90.17L24.4199 91.51Z" fill="white"/>
<path d="M71.05 100.8C72.67 99.9201 74.28 98.3801 75.9 98.3701C77.32 98.3701 78.74 100.1 80.15 101.07L79.52 102.3H71.87L71.05 100.8Z" fill="white"/>
<path d="M32.3201 100.85C34.0001 100.01 35.6901 98.52 37.3201 98.54C38.7801 98.54 40.2201 100.27 41.6801 101.24L41.0901 102.44H33.0001L32.3201 100.85Z" fill="white"/>
<path d="M106.54 36.3201H98.8401L98.0801 35.2401C99.5401 34.2401 100.99 32.4301 102.47 32.4001C103.95 32.3701 105.62 34.0301 107.19 34.9501L106.54 36.3201Z" fill="white"/>
</g>
<defs>
<clipPath id="clip0">
<rect width="112.37" height="135.35" fill="white"/>
</clipPath>
</defs>
</svg>
