<svg width="100%" height="100%" viewBox="0 0 205 81" fill="none" xmlns="http://www.w3.org/2000/svg">
<g style="mix-blend-mode:multiply" clip-path="url(#clip0)">
<path d="M29.9999 29.3101C30.3528 27.5537 30.8753 25.8357 31.5599 24.1801C32.2099 22.9201 33.5599 22.0101 34.5599 20.9501L35.8399 21.7301V51.9501H36.8399V21.5301L50.3199 20.3901C49.7299 27.7301 49.0799 34.3901 48.6899 41.1201C48.3399 47.1901 48.1899 53.2701 48.1099 59.3501C48.0099 66.2501 48.1099 73.1401 48.1099 80.7701C41.2999 80.7701 35.2499 80.8301 29.2099 80.6901C28.7587 80.5949 28.3389 80.3873 27.9893 80.0867C27.6397 79.786 27.3716 79.402 27.2099 78.9701C26.6299 75.5501 25.7599 72.0001 25.9999 68.6401C26.6699 58.9101 27.7999 49.2201 28.8099 39.5101C29.1699 36.0501 29.6999 32.6001 30.1499 29.1501L29.9999 29.3101ZM42.0999 23.1901V37.7901C44.6599 30.5801 44.5199 26.8101 42.1299 23.1901H42.0999Z" fill="#042065"/>
<path d="M55.7999 31.4801L57.7999 78.2701H53.6899V20.6201H69.6899L75.4999 78.2501H59.2699C58.7999 70.5801 58.2699 62.7401 57.8399 54.8901C57.4099 47.0401 57.0399 39.3401 56.6399 31.5701L55.7999 31.4801Z" fill="#042065"/>
<path d="M136.8 33.6001L140.14 19.3501L152.8 20.7701L158.12 76.7701H138.39L136.79 63.6101L136.92 63.7501C136.92 53.6701 136.92 43.5934 136.92 33.5201L136.8 33.6001Z" fill="#042065"/>
<path d="M117.54 19.3901H124.72L130.72 75.1301H113.42V19.1301L107.07 18.0601V7.1501L130 5.6001V17.9301C127.57 17.9301 125.52 17.7901 123.49 17.9301C121.46 18.0701 119.58 18.6001 117.63 18.9301L117.54 19.3901ZM119.39 36.2401L118.39 36.6301C119.617 46.9234 120.847 57.2134 122.08 67.5001C122.077 68.8281 122.286 70.1481 122.7 71.4101C123.18 72.4101 124.42 73.0101 125.32 73.7901L127.01 72.6901L119.39 36.2401Z" fill="#042065"/>
<path d="M82.88 23.5201C85.72 17.9901 91.06 21.3901 95.45 19.1001L97.24 74.2501H79.47C80.25 68.3601 81.24 62.6801 81.7 56.9601C82.09 52.2001 81.7 47.3901 81.94 42.6101C82.19 36.1901 82.64 29.7701 83.01 23.3501L82.88 23.5201ZM90.78 56.2101L89.78 56.0801L86.16 72.3601H90.78V56.2101Z" fill="#042065"/>
<path d="M190.54 18.0001C191.35 19.4201 192.81 20.8101 192.87 22.2601C193.51 38.5901 195.72 54.9301 192.87 71.2601C192.53 73.1601 191.48 76.1301 190.22 76.4401C187.22 77.1801 183.41 77.7001 182.81 72.7801L181.49 62.6401C180.88 56.9501 179.8 51.2601 179.79 45.5601C179.79 37.5601 180.55 29.4901 180.99 21.4601L180.85 21.6101L182.6 17.8901H190.68L190.54 18.0001Z" fill="#042065"/>
<path d="M164 6.74021L174.38 5.47021V71.2302L170.74 71.5702C170.449 71.0691 170.201 70.5438 170 70.0002C167.88 62.7402 165.79 55.4802 163.66 48.2202C163.38 47.2802 162.48 46.3602 162.55 45.4902C163.52 32.7202 159.42 19.6902 164 6.74021Z" fill="#042065"/>
<path d="M91.8801 18.56L24.4501 20.56C22.8401 12.18 24.1101 11.03 31.7701 10.81C50.6301 10.26 69.4801 9.30004 88.3301 8.54004C89.5199 8.57669 90.7059 8.69362 91.8801 8.89004V18.56Z" fill="#042065"/>
<path d="M30.1501 29.1502C29.0701 36.4602 27.9301 43.7602 26.9401 51.0802C26.2301 56.3102 25.5901 61.5602 25.1801 66.8202C24.9201 70.2502 25.1801 73.7102 25.1801 77.5702H14.8701L20.8001 21.9402H30.0001C30.0001 24.4902 30.0001 26.9402 30.0001 29.3302L30.1501 29.1502Z" fill="#042065"/>
<path d="M97.41 18.26L109.31 19.79C108.75 28.6 108 37.32 107.7 46C107.4 54.68 107.64 63.24 107.64 72.2H99.64C99 54.45 96.66 36.75 97.41 18.26Z" fill="#042065"/>
<path d="M148.1 18.4302C148.31 13.4802 150.1 12.9402 160.4 14.7402C160.63 22.8202 160.66 31.0902 161.2 39.3302C161.35 43.0681 162.176 46.7477 163.64 50.1902C167.504 58.4234 169.342 67.4618 169 76.5502H160C159.38 71.2002 158.64 65.6702 158.12 60.1202C156.97 47.8902 155.73 35.6602 154.97 23.4002C154.61 18.6602 151.53 18.8702 148.1 18.4302Z" fill="#042065"/>
<path d="M5.80003 35.6201L8.00003 24.0701H17.69V28.3301L12.18 62.9101L8.78003 73.8101C4.52003 70.7201 6.78003 64.8101 3.78003 61.5401L3.92003 61.7201L5.92003 35.4801L5.80003 35.6201Z" fill="#042065"/>
<path d="M195.74 36.6902H204.87V73.0902H195.74V36.6902Z" fill="#042065"/>
<path d="M190.64 17.9001L181.89 15.4901L180.89 12.6001C180.83 12.1101 180.73 11.6001 180.71 11.1301C180.33 -0.219883 182.37 -1.86988 193.37 1.60012C194.62 1.99012 196.05 4.27012 196.06 5.68012C196.06 10.4901 194.71 14.9401 190.54 18.0201L190.64 17.9001Z" fill="#042065"/>
<path d="M181.45 62.66L182.77 72.8C182.77 73.95 182.77 75.09 182.77 76.19C177.27 76.96 175.91 75.81 175.9 70.82C175.9 58.82 175.43 46.88 175.9 34.94C176.12 29.18 178 23.49 179.13 17.76L180.82 18.03C180.82 19.23 180.82 20.43 180.82 21.63L180.96 21.48C180.67 22.04 180.15 22.59 180.11 23.17C179.5 32.25 178.56 41.33 178.56 50.41C178.55 54.49 180.42 58.57 181.45 62.66Z" fill="#042065"/>
<path d="M83 23.3602C79.42 30.7302 81.26 38.5302 81 46.1902C80.62 55.0002 79.42 63.7002 78.48 72.4502C78.4 73.2102 77.56 73.8902 76.21 74.4502C77.04 56.3902 76.21 38.2602 81.28 20.7402L82.6 20.8102C82.6866 21.7236 82.7766 22.6369 82.87 23.5502L83 23.3602Z" fill="#042065"/>
<path d="M12.1799 62.9101L17.7299 28.3301C18.0899 30.1701 18.8999 32.0501 18.7299 33.8401C17.5599 46.1701 16.2199 58.4901 14.8399 70.8401C14.5599 73.3001 13.8399 75.7101 13.3399 78.1401L10.6899 77.6301L12.1799 62.9101Z" fill="#042065"/>
<path d="M136.79 63.57V78.1101C134.93 76.34 133.46 75.62 133.22 74.6C131 65 132.86 40.33 136.8 28.8C136.8 31.11 136.8 32.36 136.8 33.6L136.94 33.4701C136.94 43.5501 136.94 53.6267 136.94 63.7001L136.79 63.57Z" fill="#042065"/>
<path d="M19.6099 14.7602C20.1599 22.4402 19.4299 22.7002 10.1799 22.7602C5.38991 22.7602 4.37991 20.5202 4.94991 16.7602C5.15156 16.1454 5.50302 15.5904 5.97261 15.1452C6.44221 14.7001 7.01519 14.3788 7.63991 14.2102C10.4275 14.0734 13.2214 14.1369 15.9999 14.4002C17.0999 14.4502 18.2199 14.6202 19.6099 14.7602Z" fill="#042065"/>
<path d="M3.8 61.5401L5.55 73.1101L0 73.7201L3.92 31.1501L5.8 31.2601C5.8 32.7135 5.8 34.1668 5.8 35.6201L5.94 35.4701C5.29 40.2701 4.42 45.0001 4 49.8601C3.68 53.7901 3.93 57.7601 3.92 61.7201L3.8 61.5401Z" fill="#042065"/>
<path d="M98.4301 5.56006L105.54 6.70006V17.0001C97.3601 19.0001 95.6201 16.4301 98.4301 5.56006Z" fill="#042065"/>
<path d="M164.84 3.93011C163.77 5.42011 161.59 7.24011 161.09 9.43011C160.33 12.7601 158.67 12.8401 156.15 12.3601C156.26 5.27011 158.13 3.77011 164.84 3.93011Z" fill="#042065"/>
<path d="M180.91 12.6101L181.91 15.5001C181.43 15.5001 180.82 15.7301 180.48 15.5001C176.88 13.2701 176.2 4.23014 179.37 0.890137L180.91 12.6101Z" fill="#042065"/>
<path d="M42.1299 23.1902C44.5199 26.8002 44.6599 30.5802 42.1299 37.7802V23.1902Z" fill="#042065"/>
<path d="M119.39 36.2302L127 72.6702L125.31 73.7702C124.41 72.9902 123.17 72.3802 122.69 71.3902C122.276 70.1283 122.067 68.8083 122.07 67.4802C120.837 57.1936 119.607 46.9036 118.38 36.6102L119.39 36.2302Z" fill="#042065"/>
<path d="M90.7799 56.2101V72.3601H86.1599L89.8199 56.0801L90.7799 56.2101Z" fill="#042065"/>
<path d="M181.45 62.6602C180.45 58.5802 178.55 54.5002 178.55 50.4202C178.55 41.3402 179.49 32.2602 180.1 23.1802C180.1 22.6002 180.65 22.0502 180.95 21.4902C180.51 29.4902 179.73 37.5602 179.75 45.5902C179.76 51.2702 180.84 57.0002 181.45 62.6602Z" fill="#042065"/>
<path d="M3.9501 61.7102C3.9501 57.7102 3.7001 53.7802 4.0301 49.8502C4.4201 45.0002 5.2901 40.2702 5.9501 35.4702L3.9501 61.7102Z" fill="#042065"/>
</g>
<defs>
<clipPath id="clip0">
<rect width="204.88" height="80.78" fill="white"/>
</clipPath>
</defs>
</svg>
