<svg width="100%" height="100%" viewBox="0 0 130 137" fill="none" xmlns="http://www.w3.org/2000/svg">
<g style="mix-blend-mode:multiply" clip-path="url(#clip0)">
<path d="M64.81 101.59C49.17 101.59 33.52 101.69 17.8799 101.46C16.0099 101.46 14.11 99.6899 12.31 98.5899C10.51 97.4899 9.18995 95.9999 7.40995 95.2499C3.69995 93.6899 1.16995 91.1499 2.74995 87.2499C4.04995 84.0399 3.87995 81.4599 2.13995 78.9199C-2.24005 72.5099 0.779951 67.5999 5.18995 62.9999C20.19 47.3399 38.5 39.2799 60.13 38.3099C84.24 37.2199 105.45 43.9599 122.78 61.1899C125.402 63.931 127.719 66.9487 129.69 70.1899C130.3 71.1899 129.82 72.9899 129.48 74.3299C128.12 79.6999 126.76 85.0699 125.09 90.3299C124.59 91.9099 123.2 93.3299 121.99 94.5499C121.22 95.3399 119.44 95.5499 119.14 96.3399C116.85 102.64 111.65 101.63 106.76 101.62C92.77 101.56 78.7899 101.59 64.81 101.59ZM109.68 73.3699C111.54 77.0899 112.68 79.6699 114.16 82.0099C114.41 82.3999 116.29 81.7499 117.42 81.5699C116.82 78.5699 117.16 74.7499 115.42 72.6999C109.89 66.1299 102.82 61.9999 93.69 62.3899C91.6653 62.3048 89.7385 61.4957 88.26 60.1099C86.0383 57.9053 83.3744 56.1967 80.4441 55.097C77.5138 53.9973 74.3836 53.5313 71.26 53.7299L70.65 60.5899H59.31L58.58 53.8199C55.2434 53.4002 51.8553 53.7202 48.6563 54.7572C45.4573 55.7941 42.5258 57.5226 40.07 59.8199C38.3203 61.3619 36.0992 62.2644 33.77 62.3799C26.26 62.3099 20.2 65.3799 14.93 70.2599C11.17 73.7699 10.62 81.5199 14.32 84.4999L20.27 73.6799L23.35 90.4099C21.57 89.8699 20.6199 89.4099 19.66 89.3499C18.1879 89.4098 16.7213 89.5669 15.27 89.8199C16.08 91.2699 16.6299 93.6799 17.74 93.9699C20.9 94.7899 24.96 95.9699 27.37 94.6799C29.54 93.4899 29.99 89.1699 31.2099 86.2299L29.7 85.6299L26.83 94.7099L25.4 94.2599C24.99 91.9999 24.4799 89.7399 24.18 87.4599C23.76 84.1699 23.67 81.1199 28.11 80.1599C28.96 79.9799 29.7799 77.6499 29.8799 76.2599C30.15 72.2599 31.1 68.7699 36.38 65.9699C37.1882 67.1177 37.8595 68.3562 38.38 69.6599C39.38 72.9399 40.02 76.2999 40.93 80.0999C44.72 80.1799 46.7 82.3199 46 86.5099C45.5 89.5099 44.9199 92.5099 44.3499 95.7299C51.1699 98.7899 55.7499 96.7299 60.5099 87.7299C61.0399 86.7299 61.25 84.6099 60.7 84.1699C59.4389 83.1161 57.8197 82.5895 56.18 82.6999C54.18 83.0899 52.45 84.5099 50.18 85.6999V68.9999C51.1845 69.7403 52.2718 70.3612 53.4199 70.8499C55.4199 71.4099 57.59 71.6899 59.68 72.0799C59.29 70.0799 59.02 68.0799 58.4599 66.1799C57.9977 65.03 57.418 63.9308 56.7299 62.8999H73.17C72.0454 64.7041 71.0432 66.5816 70.17 68.5199C69.78 69.5199 69.66 71.3599 70.26 71.9299C70.78 72.2463 71.3645 72.442 71.9702 72.5026C72.5759 72.5631 73.1875 72.4871 73.76 72.2799C75.7737 71.4164 77.7251 70.414 79.6 69.2799V85.7699C77.43 84.5599 75.82 83.1699 73.98 82.7699C72.56 82.4699 70.09 82.9399 69.52 83.9199C68.85 85.0499 69.46 87.2099 70.01 88.7299C72.37 95.1699 77.56 98.0299 83.82 96.5499C88.82 95.3799 89.96 93.0699 89.31 84.8499L86.44 94.5599L84.86 94.1199C84.42 91.3499 83.5499 88.5499 83.71 85.8099C83.81 84.0299 85.35 82.2899 86.38 80.6099C87.2599 79.1599 88.59 77.9399 89.26 76.4099C90.69 73.1099 91.82 69.6799 93.15 66.0999C100.08 69.3699 99.47 74.7999 100.15 79.4999C106.55 82.1599 107.35 85.6899 102.53 94.5799L100.09 85.5199C100.28 89.0899 97.8999 93.9999 103.09 95.1599C105.95 95.7899 109.35 94.5199 112.34 93.5899C112.87 93.4199 112.58 90.6599 112.69 88.5899L106.33 90.1899L109.68 73.3699ZM117.33 64.2999C104.52 52.1599 89.23 45.7999 71.33 44.4099V51.4799C78.74 51.9999 85.11 53.8999 90 59.3099C90.3195 59.6677 90.7067 59.9588 91.1392 60.1665C91.5716 60.3742 92.0409 60.4943 92.52 60.5199C100.52 59.8699 107.33 62.9099 112.76 67.1899L117.33 64.2999ZM58.72 44.4199C40.72 45.8299 25.33 51.9499 12.9399 65.1299C15.9399 65.0199 18.6399 64.0599 21.4 63.3299C25.1999 62.3299 29.03 61.4299 32.86 60.5799C34.27 60.2699 36.33 60.7599 37.08 59.9499C42.9 53.6399 50.31 51.5499 58.7099 51.5299L58.72 44.4199ZM70.59 77.6799C67.9399 75.7999 66.39 73.8699 64.81 73.8499C63.56 73.8499 61.0799 76.3999 61.2799 77.3799C61.5582 78.2873 62.0477 79.1157 62.7083 79.7972C63.3689 80.4786 64.1817 80.9937 65.08 81.2999C66.28 81.5499 68 79.4999 70.59 77.6799Z" fill="black"/>
<path d="M64.2299 125.48C79.7199 125.48 95.2299 125.55 110.71 125.48C114.66 125.48 117.5 126.65 117.43 130.88C117.36 135.11 114.3 136.36 110.53 136.36H17.5299C13.7799 136.36 10.6099 135.11 10.5299 130.95C10.4399 126.41 13.6599 125.44 17.7099 125.47C33.2399 125.55 48.7299 125.48 64.2299 125.48Z" fill="black"/>
<path d="M111.07 108.91C110.07 110.46 108.27 111.98 108.26 113.52C108.26 114.87 110.19 116.25 111.34 117.7H16.5701C17.7101 116.34 19.7201 114.99 19.7801 113.55C19.8401 112.11 18.0001 110.49 17.0001 108.91H111.07ZM89.8501 118.54C92.2401 116.11 94.5901 114.84 94.8501 113.21C95.4901 109.52 92.1901 110.21 90.0501 110.21C87.9101 110.21 84.3101 109.39 85.0501 113.44C85.3001 115 87.5201 116.18 89.8501 118.54ZM38.8501 108.28C36.1501 110.54 33.6101 111.62 33.1901 113.28C32.3101 116.7 35.2601 116.77 37.6601 116.58C39.8801 116.4 43.3801 117.74 43.0001 113.58C42.8501 112 40.8201 110.69 38.8401 108.27L38.8501 108.28ZM64.0001 116.55C65.0001 116.55 66.1601 116.89 66.9401 116.48C68.3546 115.593 69.6925 114.59 70.9401 113.48C69.6901 112.39 68.5901 110.74 67.1501 110.35C65.0611 109.81 62.869 109.81 60.7801 110.35C59.3401 110.74 58.2501 112.35 57.0001 113.48C58.0524 114.622 59.2414 115.629 60.5401 116.48C61.5401 116.92 62.8901 116.55 64.0001 116.55Z" fill="black"/>
<path d="M53.1299 18.18V6.38L60.3299 6.92L58.9999 0H70.5999L69.9099 7.36L76.8299 6V18.4C73.6999 17.56 70.2499 13.29 68.3999 17.7C70.2199 22.4 72.0599 26.05 72.9099 29.91C73.2199 31.31 71.4899 33.57 70.1299 34.84C67.0199 37.74 61.8499 37.25 58.8999 34.13C55.1299 30.13 56.0799 25.64 62.0199 19.31C59.2999 15.43 59.2999 15.43 53.1299 18.18ZM68.6499 12.71L64.9999 7.27L60.5599 12L64.5599 16.54L68.6499 12.71Z" fill="black"/>
<path d="M63.67 123.74H19.23C18.0741 123.882 16.9032 123.841 15.76 123.62C14.87 123.32 14.22 122.31 13.46 121.62C14.28 120.96 15.02 119.95 15.94 119.74C17.4215 119.54 18.9204 119.503 20.41 119.63H108.78C110.115 119.504 111.461 119.561 112.78 119.8C113.2 119.971 113.572 120.242 113.861 120.591C114.151 120.94 114.35 121.356 114.44 121.8C114.44 122.42 113.36 123.39 112.6 123.58C111.278 123.791 109.934 123.842 108.6 123.73L63.67 123.74Z" fill="black"/>
<path d="M64.5399 102.62H108.45C109.784 102.461 111.135 102.518 112.45 102.79C113.32 103.1 113.88 104.3 114.58 105.11C113.954 105.78 113.22 106.341 112.41 106.77C111.421 106.96 110.41 106.997 109.41 106.88H18.5799C17.5799 106.999 16.5672 106.959 15.5799 106.76C14.7753 106.319 14.0516 105.744 13.4399 105.06C14.1599 104.27 14.7499 103.06 15.6399 102.79C16.9566 102.527 18.3065 102.473 19.6399 102.63L64.5399 102.62Z" fill="black"/>
<path d="M109.68 73.37L106.37 90.24L112.73 88.64C112.62 90.64 112.91 93.43 112.38 93.64C109.38 94.58 106 95.85 103.13 95.21C97.91 94.06 100.3 89.14 100.13 85.57L102.57 94.63C107.39 85.74 106.57 82.21 100.19 79.55C99.46 74.84 100.08 69.42 93.19 66.15C91.86 69.73 90.73 73.15 89.3 76.46C88.64 77.99 87.3 79.21 86.42 80.66C85.42 82.34 83.86 84.08 83.75 85.86C83.59 88.6 84.47 91.4 84.9 94.17L86.48 94.61L89.35 84.9C90 93.12 88.82 95.43 83.86 96.6C77.54 98 72.35 95.17 70 88.73C69.44 87.2 68.84 85.05 69.51 83.92C70.08 82.92 72.51 82.47 73.97 82.77C75.8 83.16 77.42 84.55 79.59 85.77V69.28C77.7152 70.414 75.7638 71.4164 73.75 72.28C73.1776 72.4871 72.566 72.5632 71.9603 72.5026C71.3546 72.442 70.7701 72.2463 70.25 71.93C69.65 71.36 69.7701 69.56 70.16 68.52C71.0333 66.5817 72.0355 64.7041 73.16 62.9H56.78C57.4681 63.9308 58.0478 65.03 58.51 66.18C59.07 68.1 59.34 70.11 59.73 72.08C57.64 71.69 55.51 71.41 53.47 70.85C52.3219 70.3612 51.2346 69.7403 50.23 69V85.66C52.48 84.47 54.23 83.05 56.23 82.66C57.8698 82.5495 59.489 83.0761 60.75 84.13C61.31 84.57 61.09 86.68 60.56 87.69C55.8 96.75 51.22 98.77 44.4 95.69C45 92.5 45.52 89.5 46 86.49C46.7 82.29 44.72 80.15 40.93 80.08C40.02 76.28 39.35 72.92 38.38 69.64C37.8596 68.3362 37.1883 67.0978 36.38 65.95C31.11 68.75 30.16 72.22 29.88 76.24C29.79 77.63 28.97 79.96 28.11 80.14C23.67 81.14 23.76 84.14 24.18 87.44C24.47 89.72 24.98 91.97 25.4 94.24L26.83 94.69L29.7 85.61L31.21 86.21C30 89.15 29.54 93.48 27.37 94.66C24.96 95.98 20.9 94.77 17.74 93.95C16.63 93.66 16.08 91.24 15.27 89.8C16.7214 89.5469 18.188 89.3899 19.66 89.33C20.66 89.33 21.57 89.85 23.35 90.39L20.28 73.66L14.34 84.48C10.63 81.48 11.18 73.75 14.95 70.24C20.22 65.32 26.27 62.24 33.79 62.36C36.1193 62.2445 38.3404 61.3419 40.09 59.8C42.5459 57.5027 45.4774 55.7742 48.6764 54.7372C51.8754 53.7003 55.2635 53.3803 58.6 53.8L59.33 60.57H70.67L71.28 53.71C74.4036 53.5114 77.5339 53.9773 80.4642 55.077C83.3945 56.1768 86.0584 57.8853 88.28 60.09C89.7586 61.4758 91.6854 62.2848 93.71 62.37C102.84 62.02 109.92 66.12 115.46 72.68C117.19 74.73 116.84 78.55 117.46 81.55C116.33 81.72 114.46 82.38 114.2 81.99C112.66 79.67 111.54 77.09 109.68 73.37Z" fill="white"/>
<path d="M117.33 64.2999L112.78 67.1899C107.36 62.9099 100.58 59.8699 92.5399 60.5199C92.0574 60.4968 91.5843 60.378 91.1483 60.1702C90.7122 59.9625 90.3218 59.67 89.9999 59.3099C85.1099 53.8999 78.7399 51.9999 71.3799 51.4799V44.4099C89.2299 45.7999 104.53 52.1599 117.33 64.2999Z" fill="white"/>
<path d="M58.72 44.4199V51.5299C50.32 51.5299 42.9 53.6399 37.09 59.9499C36.34 60.7599 34.2799 60.2699 32.8699 60.5799C29.0299 61.4299 25.2 62.3199 21.41 63.3299C18.65 64.0699 15.95 65.0199 12.95 65.1299C25.34 51.9999 40.75 45.8299 58.72 44.4199Z" fill="white"/>
<path d="M70.59 77.68C67.97 79.5 66.28 81.55 65.09 81.29C64.1917 80.9837 63.3789 80.4687 62.7183 79.7872C62.0577 79.1058 61.5682 78.2773 61.29 77.37C61.09 76.37 63.57 73.82 64.82 73.84C66.38 73.87 67.93 75.8 70.59 77.68Z" fill="white"/>
<path d="M89.85 118.54C87.52 116.18 85.3 114.99 85.03 113.46C84.33 109.4 87.78 110.23 90.03 110.23C92.28 110.23 95.48 109.51 94.83 113.23C94.59 114.84 92.24 116.11 89.85 118.54Z" fill="white"/>
<path d="M38.84 108.27C40.84 110.69 42.84 112.04 42.99 113.56C43.37 117.68 39.87 116.34 37.65 116.56C35.25 116.75 32.3 116.69 33.18 113.26C33.6 111.61 36.14 110.53 38.84 108.27Z" fill="white"/>
<path d="M64 116.55C62.84 116.55 61.5 116.92 60.57 116.46C59.2713 115.609 58.0824 114.602 57.03 113.46C58.28 112.37 59.37 110.72 60.81 110.33C62.899 109.79 65.0911 109.79 67.18 110.33C68.62 110.72 69.72 112.33 70.97 113.46C69.7225 114.57 68.3845 115.573 66.97 116.46C66.21 116.89 65 116.55 64 116.55ZM59.3 112.76L59.09 113.92H68.81L68.9 112.76H59.3Z" fill="white"/>
<path d="M59.3399 112.76H68.9399L68.8499 113.92H59.1299L59.3399 112.76Z" fill="black"/>
</g>
<defs>
<clipPath id="clip0">
<rect width="129.98" height="136.32" fill="white"/>
</clipPath>
</defs>
</svg>
