<svg width="100%" height="100%" viewBox="0 0 137 77" fill="none" xmlns="http://www.w3.org/2000/svg">
<g style="mix-blend-mode:multiply" clip-path="url(#clip0)">
<path d="M0.620118 29.85C0.620118 24.34 0.230118 19.33 0.700118 14.41C1.69012 4.14 6.44012 0 16.7301 0C40.9101 0 65.0601 0 89.1801 0C99.6701 0 110.18 0 120.66 0C127.51 0 130.03 2.29 130.88 8.91C131.77 15.8 132.68 22.68 133.62 29.82L0.620118 29.85ZM104.76 6.9C99.3601 6.9 94.5601 6.69 89.8201 7.07C88.8201 7.15 87.1701 9.33 87.1801 10.54C87.1801 12.04 88.4901 14.76 89.4201 14.84C94.4201 15.27 99.5301 15.04 104.76 15.04V6.9ZM19.0001 6.89C17.1701 6.89 15.3301 7 13.5201 6.89C10.5201 6.66 9.97012 8.29 9.95012 10.89C9.95012 13.65 10.4101 15.35 13.7401 15.15C17.227 14.9412 20.7232 14.9412 24.2101 15.15C27.4901 15.34 28.0001 13.7 28.0401 10.91C28.0401 7.91 27.0401 6.6 23.9901 6.91C22.3101 7 20.6401 6.88 19.0001 6.89ZM46.7901 14.83V7.63C46.2101 7.34 45.9301 7.07 45.6401 7.07C42.3001 7 39.0001 6.9 35.6701 6.89C28.6101 6.89 27.9701 7.8 30.1601 14.83H46.7901ZM49.0301 15.07H60.4801C67.0301 15.07 67.5901 14.24 65.7201 7.25H49.0001L49.0301 15.07ZM115.45 15.07C116.942 14.9917 118.438 14.9917 119.93 15.07C123.1 15.41 124.33 14.25 124.33 10.92C124.33 7.59 122.96 6.61 119.86 6.81C116.713 7.00567 113.557 7.00567 110.41 6.81C107.41 6.63 106.23 7.69 106.19 10.74C106.15 13.79 107.14 15.43 110.48 15.07C112.129 14.9844 113.782 14.9877 115.43 15.08L115.45 15.07ZM68.1201 15.07C73.4301 15.07 78.2401 15.28 83.0001 14.91C84.0501 14.83 85.7201 12.67 85.7201 11.48C85.7201 9.96 84.4001 7.22 83.4601 7.14C78.4601 6.71 73.3201 6.94 68.1201 6.94V15.07Z" fill="#6B0303"/>
<path d="M49.26 70.6199C48.56 61.7999 45.04 57.3199 39.08 57.2599C33.12 57.1999 29.79 61.3299 28.4 70.8699C20.02 70.8699 11.57 70.9499 3.11005 70.7499C2.24005 70.7499 1.41005 69.0699 0.560047 68.1799L1.34005 66.9999H22.16C22.16 58.2599 22.29 49.9999 21.99 41.7399C21.99 40.7399 19.65 39.1299 18.32 39.0399C13.32 38.7099 8.32005 38.8099 3.32005 38.9399C0.450047 39.0099 -0.769953 38.1399 0.440047 34.9399H132.62V52.7799C139.62 57.5499 134.62 64.4699 136.4 70.5699H131.35C130.6 62.1499 127.8 55.6299 117.52 58.0299C113.12 59.0299 111.72 62.0299 110.24 70.6199H49.26ZM37.13 39.1099C35.13 39.1099 33.13 39.2099 31.13 39.1099C27.98 38.9199 27.13 40.5599 27.13 43.3799C27.13 46.1999 28.03 47.7399 31.13 47.6499C34.95 47.5299 38.77 47.4899 42.59 47.6499C45.97 47.7999 46.82 46.1799 46.8 43.0999C46.78 40.0199 45.55 38.8799 42.6 39.0999C40.79 39.2199 39 39.1099 37.13 39.1099ZM58.25 39.1099C56.25 39.1099 54.25 39.2199 52.25 39.1099C49.1 38.8899 48.25 40.4899 48.25 43.3399C48.25 46.1899 49.09 47.7399 52.25 47.6399C55.9 47.5099 59.56 47.5399 63.25 47.6399C66.11 47.7199 67.97 47.2599 67.95 43.6399C67.93 40.0199 66.71 38.7599 63.26 39.1099C61.59 39.2499 59.92 39.1099 58.25 39.1199V39.1099ZM111.31 47.5299C109.72 43.8899 109.02 39.7599 107.59 39.5299C102.95 38.6599 98.03 38.9499 93.27 39.3899C92.27 39.4799 90.97 42.1499 90.91 43.6699C90.86 44.9399 92.36 47.3299 93.29 47.3899C98.67 47.7199 104.09 47.5299 111.32 47.5299H111.31ZM79.79 39.1099C77.79 39.1099 75.79 39.2499 73.79 39.1099C70.47 38.8199 69.53 40.3599 69.45 43.4799C69.4 46.8899 71 47.7499 74 47.6299C77.47 47.4999 81 47.4499 84.43 47.6299C87.43 47.7699 88.9601 46.9799 88.98 43.5299C88.98 39.9299 87.5601 38.7799 84.23 39.0899C82.7801 39.2199 81.28 39.1099 79.79 39.1099ZM129.63 52.5899V36.8099L122.55 37.8699C120.91 50.6299 121 50.7399 129.63 52.5899ZM119.63 38.2299C115.75 38.4099 111.86 37.7599 111.7 43.3099C111.56 48.1699 112.64 49.0499 119.63 49.2299V38.2299Z" fill="#6B0303"/>
<path d="M132.27 33H1.33008V31.95H132.33L132.27 33Z" fill="#6B0303"/>
<path d="M3.88013 40.22H12.3501V64.91H3.88013V40.22Z" fill="#6B0303"/>
<path d="M39.19 59.0701C41.4904 59.1363 43.6751 60.0939 45.2826 61.7409C46.89 63.3878 47.7945 65.595 47.8048 67.8964C47.8152 70.1977 46.9308 72.413 45.3382 74.0744C43.7457 75.7358 41.5698 76.7131 39.27 76.8001C36.9189 76.7677 34.6709 75.8295 32.9943 74.1808C31.3178 72.5322 30.3419 70.3003 30.27 67.9501C30.2858 65.5929 31.232 63.3374 32.9025 61.6743C34.573 60.0113 36.8328 59.0753 39.19 59.0701ZM45.48 67.8601C42.48 65.8001 40.65 63.5901 39.07 63.7501C37.49 63.9101 35.07 66.4601 35.07 67.9601C35.07 69.4601 37.62 71.8301 39.21 71.9601C40.8 72.0901 42.56 69.9101 45.48 67.8701V67.8601Z" fill="#6B0303"/>
<path d="M129.6 67.8301C129.609 69.5658 129.106 71.2657 128.153 72.7167C127.201 74.1678 125.841 75.3055 124.245 75.9874C122.649 76.6693 120.887 76.8651 119.18 76.5502C117.473 76.2353 115.897 75.4238 114.649 74.2172C113.401 73.0107 112.537 71.4627 112.165 69.7673C111.793 68.0719 111.93 66.3044 112.557 64.6862C113.185 63.068 114.277 61.671 115.695 60.6702C117.113 59.6694 118.795 59.1093 120.53 59.0601C122.886 59.0538 125.152 59.9664 126.845 61.604C128.539 63.2417 129.527 65.4753 129.6 67.8301ZM120.52 74.2101C122.66 71.3601 124.94 69.6501 124.82 68.1201C124.7 66.5901 122.28 63.8101 120.9 63.8301C119.3 63.8301 116.72 66.1601 116.46 67.7801C116.2 69.4001 118.48 71.1701 120.53 74.2001L120.52 74.2101Z" fill="#6B0303"/>
<path d="M20.8702 65H15.1602V40.51C19.0702 39.36 21.2102 39.93 20.9502 44.94C20.6202 51.53 20.8702 58.16 20.8702 65Z" fill="#6B0303"/>
</g>
<defs>
<clipPath id="clip0">
<rect width="136.51" height="76.81" fill="white"/>
</clipPath>
</defs>
</svg>
