<svg width="100%" height="100%" viewBox="0 0 136 112" fill="none" xmlns="http://www.w3.org/2000/svg">
<g style="mix-blend-mode:multiply" clip-path="url(#clip0)">
<path d="M34 43.2199C37.38 42.2199 40.74 40.4499 44.15 40.3599C56.78 40.0199 69.44 40.6099 82.06 40.0699C88.97 39.7699 93.78 42.5499 98.17 47.1799C99.29 48.3599 100.57 49.3799 101.78 50.4699L101.99 50.7599C104.67 57.5699 107.29 64.4599 105.9 71.9299C104.9 77.0999 103.31 82.1399 101.98 87.2399L102.11 87.0599C98.65 92.0599 95.43 97.2199 91.59 101.89C89.8846 103.757 87.5234 104.893 85 105.06C71 105.35 57 105.06 43.07 105.28C39.88 105.28 37.53 104.52 36.01 101.77C31.71 93.9999 26.51 86.5299 23.4 78.2799C19.4 67.7499 21.81 57.3599 28.23 48.0399L34 43.2199ZM76.1 66.1399C78.4425 66.0532 80.6627 65.0718 82.3035 63.3975C83.9442 61.7233 84.8806 59.4837 84.92 57.1399C84.7966 54.863 83.8011 52.721 82.1401 51.1586C80.4791 49.5963 78.2802 48.7337 76 48.7499C73.7258 48.7379 71.5362 49.6108 69.8939 51.184C68.2517 52.7572 67.2856 54.9074 67.2 57.1799C67.2103 59.5427 68.1494 61.8067 69.8146 63.483C71.4797 65.1594 73.7373 66.1137 76.1 66.1399ZM60.06 79.9999C60.0026 77.6513 59.029 75.4182 57.3474 73.7777C55.6658 72.1372 53.4093 71.2192 51.06 71.2199C48.7733 71.374 46.6362 72.4112 45.1002 74.1121C43.5642 75.8131 42.7498 78.0446 42.829 80.3351C42.9082 82.6256 43.8749 84.7955 45.5247 86.3863C47.1745 87.9771 49.3782 88.8641 51.67 88.8599C53.9257 88.7069 56.0412 87.7105 57.5957 86.0688C59.1503 84.4272 60.03 82.2606 60.06 79.9999ZM82.43 89.5799C82.52 93.9299 86.43 97.9999 90.66 98.0899C93.06 98.0899 99.39 90.2499 99.48 87.0899C99.57 83.9299 95.13 80.4999 91.23 80.5399C88.8809 80.6223 86.6543 81.6085 85.0147 83.2928C83.3751 84.9771 82.4492 87.2294 82.43 89.5799ZM35 43.4599C32 47.3099 28.84 50.8499 26.29 54.7699C25.7 55.6799 26.57 58.5199 27.63 59.3299C31.4 62.1999 36.63 60.9999 39.31 56.9999C42.34 52.6199 41.27 48.2799 35 43.4599ZM55.15 103.71H68.51C64.08 98.9299 60.49 98.8699 55.17 103.71H55.15Z" fill="#790303"/>
<path d="M102 50.76L101.79 50.47L100.2 47.47C107.2 46.91 111.75 42.59 115.69 37.36C120.93 30.42 126.2 29.03 135.58 32.36C126.32 40.65 124.46 52 122 63.13C119.39 74.85 113.68 84.24 102.12 89.68C102.12 88.62 102.12 87.83 102.12 87.05L101.99 87.23C109.45 76.64 109.45 60.47 102 50.76Z" fill="#790303"/>
<path d="M34 43.2198L28.23 47.9998L25.28 50.0898C23.78 48.3998 22.36 46.5598 20.71 44.9598C15.39 39.7998 9.93003 41.0498 7.18003 47.9998C3.59003 57.0898 6.61003 69.7898 15.4 74.4898C22.13 78.0798 23.4 83.9098 26.21 89.6398C14.62 87.4498 0.840035 71.9298 0.120035 59.9298C-0.273699 54.9726 0.0973047 49.9843 1.22003 45.1398C3.77003 35.2298 12.27 30.7898 21.67 34.6398C26.19 36.4898 29.92 40.2998 34 43.2198Z" fill="#790303"/>
<path d="M63.27 30.6699C56.27 30.6699 49.27 30.8199 42.27 30.5699C40.58 30.5099 38.93 29.1499 37.27 28.3799C38.14 26.8699 38.64 24.7299 39.94 23.9599C46.22 20.2599 52.48 16.2699 59.26 13.7599C62.59 12.5299 67.36 13.4799 70.91 14.8899C76.73 17.2099 82.18 20.5299 87.54 23.8199C88.92 24.6599 89.41 26.9499 90.31 28.5799C88.62 29.2899 86.94 30.5799 85.23 30.5799C77.91 30.8099 70.58 30.6799 63.23 30.6799L63.27 30.6699ZM88.57 28.9399L89.57 27.1299C86.57 25.2199 83.79 22.4899 80.57 21.7899C79.31 21.5199 77.06 25.7899 74.46 28.9399H88.57ZM41.17 24.3099C49.33 26.3099 52.63 24.3899 53.79 17.7499L41.17 24.3099Z" fill="#790303"/>
<path d="M63.9001 39C56.4101 39 48.9001 39 41.4301 39C38.6801 39 35.5101 39.14 35.5301 35.44C35.5301 32.05 38.5301 32.15 41.1301 32.16C56.4635 32.1934 71.7768 32.1934 87.0701 32.16C89.4701 32.16 92.0701 31.99 92.1501 35.36C92.1501 38.92 89.5301 39 86.8701 38.99C79.2101 38.93 71.5501 39 63.9001 39Z" fill="#790303"/>
<path d="M35.76 109.76C37.52 108.83 39.26 107.11 41.03 107.09C56.3033 106.877 71.58 106.877 86.86 107.09C88.66 107.09 90.43 108.84 92.22 109.78L91.66 111.17H36.35L35.76 109.76Z" fill="#790303"/>
<path d="M70.22 5.9199C70 9.8999 68 12.1799 64 12.2599C60.19 12.3299 58 10.3299 57.82 6.5799C57.64 2.8299 59.55 0.139901 63.63 -9.93968e-05C67.71 -0.140099 69.73 2.0799 70.22 5.9199Z" fill="#790303"/>
<path d="M102 50.76C109.47 60.47 109.47 76.64 102 87.24C103.33 82.14 105 77.1 105.92 71.93C107.27 64.46 104.66 57.56 102 50.76Z" fill="#790303"/>
</g>
<defs>
<clipPath id="clip0">
<rect width="135.57" height="111.16" fill="white"/>
</clipPath>
</defs>
</svg>
