<svg width="100%" height="100%" viewBox="0 0 132 137" fill="none" xmlns="http://www.w3.org/2000/svg">
<g style="mix-blend-mode:multiply" clip-path="url(#clip0)">
<path d="M65.5598 124C30.8698 123.74 3.7298 96.17 3.9998 61.3999C4.11871 49.1451 7.86686 37.2004 14.7708 27.0746C21.6748 16.9488 31.4248 9.09625 42.7892 4.50883C54.1537 -0.0785837 66.6228 -1.19506 78.6215 1.30043C90.6202 3.79592 101.61 9.79143 110.203 18.5296C118.796 27.2678 124.607 38.3567 126.901 50.3955C129.195 62.4342 127.87 74.8829 123.093 86.169C118.316 97.455 110.301 107.072 100.061 113.805C89.8208 120.539 77.8149 124.086 65.5598 124ZM31.9298 16.8399C35.5298 14.4199 39.1498 12.0199 42.7298 9.55995C44.0498 8.65995 45.2798 7.62995 46.5498 6.65995L45.4798 5.36995C34.3637 9.10734 24.8012 16.4261 18.2898 26.1799C20.6541 25.1922 22.8635 23.8686 24.8498 22.2499C27.2898 20.4199 29.6798 18.5299 32.0998 16.6699C31.2578 17.8615 30.2777 18.9491 29.1798 19.9099C22.8898 24.2299 21.9998 30.2099 23.6198 36.9999C23.8042 37.8201 23.9311 38.6521 23.9998 39.4899C24.3698 43.5999 26.2298 45.6599 30.6598 46.4099C39.1998 47.8499 46.5398 48.5399 54.7598 42.7699C63.7598 36.4799 68.2198 30 66.1098 19.2799C66.0498 18.9599 66.2198 18.5499 66.1098 18.2799C65.2198 16.7299 64.6398 14.4999 63.2898 13.7999C53.9998 8.99995 44.7398 7.72995 35.7698 14.6799C34.5462 15.4959 33.2625 16.2179 31.9298 16.8399ZM41.1798 92.6199C41.3599 91.7201 41.6348 90.8419 41.9998 89.9999C45.2798 84.2999 50.7798 78.8499 51.3598 72.8999C51.9998 66.66 47.9098 59.9999 45.8598 53.4999C45.7751 53.008 45.5839 52.5404 45.2998 52.1299C44.4498 51.2699 43.5898 50.0299 42.5398 49.7999C37.3698 48.6299 32.1498 47.6899 26.9298 46.7999C26.4581 46.7033 25.9714 46.7068 25.5011 46.8102C25.0308 46.9135 24.5875 47.1145 24.1998 47.3999C18.6998 53.7599 12.0698 59.8399 14.1998 69.4699C15.4908 75.2708 17.3291 80.9362 19.6898 86.3899C22.3598 92.4999 35.6298 95.8999 41.3098 92.4699C41.4098 94.6799 40.8998 97.1499 41.7098 99.0699C45.0498 106.98 50.1598 112.35 59.6098 113.42C75.0198 115.15 82.7098 112.28 88.8298 101.17C90.9398 97.3499 91.5798 94.1699 88.6398 90.2699C85.6998 86.3699 83.8198 81.9999 81.0798 77.9999C80.5531 77.3677 79.9044 76.8479 79.1726 76.4716C78.4407 76.0954 77.6405 75.8703 76.8198 75.8099C70.0398 75.5399 63.2298 75.88 56.4598 75.4399C53.6198 75.2599 52.3398 76.1899 50.9498 78.3499C47.8498 83.1999 44.4598 87.8699 41.1798 92.6199ZM118.95 62.3599C116.95 58.8799 114.04 53.5799 111 48.3599C109.56 45.8699 107.64 45.3599 104.74 46.4199C100.41 48.0399 95.7998 48.8899 91.4398 50.4199C89.8352 50.9969 88.507 52.1574 87.7198 53.6699C79.7198 72.9799 79.7198 72.9999 90.4798 90.7899C90.5808 90.9225 90.6711 91.063 90.7498 91.2099C91.8698 93.9999 93.8098 94.41 96.6998 93.9999C109.78 91.9999 119 80.0699 118.95 62.3599ZM108.95 34.6599C108.3 30.9299 108.95 25.7999 106.74 23.7499C101 18.4199 94.4898 13.3899 87.3698 10.3799C83.6198 8.78995 77.9998 11.5599 73.1898 12.5699C68.9998 13.4399 67.9998 15.9999 67.5398 20.3899C66.5898 30.2599 69.6698 36.7699 78.0998 42.6899C85.2398 47.6899 91.0498 49.9999 99.4898 46.7699C108.16 43.4499 108.4 44.0799 109 34.6599H108.95ZM45.4798 118.76C60.4198 123.52 74.3998 123.49 88.3298 116.85C84.8533 115.156 81.0865 114.138 77.2298 113.85C70.9598 113.67 64.4998 115.25 58.4298 114.22C52.9998 113.32 49.8298 115.59 45.4898 118.76H45.4798ZM17.4798 97.8299L19.4798 97.4899C18.8398 93.4899 18.4798 89.4899 17.4798 85.4899C16.1998 80.2099 14.1098 75.1099 13.0798 69.7899C11.8698 63.5199 11.8098 62.7899 5.6598 58.4499C4.9998 73.2399 8.7898 86.2999 17.5298 97.8199L17.4798 97.8299ZM114.05 97.8299C121.95 86.5699 126.05 74.9899 125.88 61.6799C121.83 62.7799 120.11 64.6799 119.53 68.5999C118.827 73.3556 117.322 77.9575 115.08 82.2099C112.54 87.0899 111.92 91.6899 114.1 97.8399L114.05 97.8299ZM111.1 23.5299C104.536 14.5 94.9595 8.11543 84.0998 5.52995L111.1 23.5299Z" fill="black"/>
<path d="M71.1199 136.74C49.3199 136.21 32.6899 135.37 16.6199 130.5C12.0222 129.131 7.64441 127.111 3.61988 124.5C-1.23012 121.3 -1.22012 116.7 3.75988 113.66C8.36988 110.85 13.6499 109.09 18.7599 107.22C19.6899 106.88 21.4499 107.99 22.4599 108.86C48.6799 131.44 82.4599 131.63 108.7 109.09C110.93 107.17 112.8 106.68 115.31 107.76C119.25 109.48 123.45 110.76 127.07 113.04C132.86 116.62 133.12 122.21 127.07 125.04C119.344 128.823 111.159 131.583 102.72 133.25C90.6399 135.44 78.2899 136 71.1199 136.74Z" fill="black"/>
</g>
<defs>
<clipPath id="clip0">
<rect width="131.5" height="136.74" fill="white"/>
</clipPath>
</defs>
</svg>
