<svg width="100%" height="100%" viewBox="0 0 167 228" fill="none" xmlns="http://www.w3.org/2000/svg">
<path d="M96.73 85.4299C99.36 88.4299 102.54 91.1499 104.53 94.5399C111.86 107.04 116.73 120.54 121.04 135.18C95.89 127.18 71.32 127.18 45.75 135.27C48.11 128.52 49.92 122.54 52.28 116.78C55.28 109.57 58.87 102.64 61.78 95.4099C65.46 86.2599 73.12 83.6799 81.7 83.4099C86.7 83.2399 91.8 84.7899 96.86 85.5699L96.73 85.4299Z" fill="#19649F"/>
<path d="M75.6 83C63.79 84.05 60.51 93.54 56.68 102C51.93 112.54 47.91 123.41 43.43 134.52C29.69 130.08 15.49 128.75 0 132.77C19.26 105.78 40.26 83.73 75.6 83Z" fill="#19649F"/>
<path d="M96.8601 85.5701L92.0701 82.8301C126.76 83.8301 147.78 105.67 167 132.76C151.48 128.9 137.32 130.13 123.33 134.76C120.33 126.61 117.73 118.76 114.45 111.16C111.296 103.855 107.689 96.755 103.65 89.9001C102.39 87.7801 99.0801 86.9001 96.7201 85.4201L96.8601 85.5701Z" fill="#19649F"/>
<path d="M79.5999 184.36H87.3399C87.3399 193.36 87.8999 202.19 87.1899 210.9C86.3799 220.9 77.7999 227.54 67.3999 227.32C62.7844 227.306 58.3472 225.536 54.9893 222.369C51.6314 219.203 49.6044 214.877 49.3199 210.27C49.2099 208.36 50.7799 205.2 52.3199 204.6C55.2299 203.49 56.4399 206.05 57.0299 208.82C58.6899 216.62 62.8599 220.03 69.5599 219.37C75.8299 218.75 79.5599 213.9 79.5599 206.22C79.6299 199.1 79.5999 192 79.5999 184.36Z" fill="#19649F"/>
<path d="M83.4599 34.3301C86.1899 39.0001 88.7899 43.0001 90.9999 47.1901C93.2099 51.3801 92.3299 55.9001 88.8599 58.3501C87.3403 59.5538 85.4585 60.2088 83.5199 60.2088C81.5813 60.2088 79.6995 59.5538 78.1799 58.3501C74.7699 55.9301 73.8899 51.5001 76.1799 47.1801C78.2599 43.0001 80.7199 39.0901 83.4599 34.3301Z" fill="#19649F"/>
<path d="M142.93 34.3799C145.42 38.6399 147.87 42.5699 150.06 46.6399C152.54 51.2499 151.83 55.6399 148.29 58.2399C144.75 60.8399 140.72 60.9099 137.29 58.1399C133.52 55.1399 133.43 50.9699 135.59 46.9299C137.82 42.7199 140.39 38.6799 142.93 34.3799Z" fill="#19649F"/>
<path d="M113.17 34.28C115.83 38.95 118.48 43.15 120.67 47.58C122.67 51.58 122.15 55.49 118.48 58.31C117.011 59.5869 115.131 60.2901 113.185 60.2901C111.239 60.2901 109.358 59.5869 107.89 58.31C104.29 55.47 103.58 51.64 105.65 47.61C107.9 43.18 110.49 39 113.17 34.28Z" fill="#19649F"/>
<path d="M24.1499 34.3C26.7499 38.74 29.3299 42.7801 31.5499 47C33.7699 51.22 32.9499 56 29.7299 58.25C26.0999 60.83 22.2099 61 18.7299 58.14C14.9599 55.07 14.7299 51.0501 16.8799 46.9501C19.0299 42.85 21.5799 38.73 24.1499 34.3Z" fill="#19649F"/>
<path d="M53.8801 34.3701C56.4601 38.7901 58.8801 42.6001 60.9501 46.5401C63.4601 51.2501 62.8301 55.5401 59.3101 58.2101C55.7901 60.8801 51.7401 60.9401 48.3101 58.0601C44.5701 54.9301 44.5901 50.8001 46.7201 46.7501C48.8501 42.7001 51.3301 38.7301 53.8801 34.3701Z" fill="#19649F"/>
<path d="M128 0C130.52 4.27 133 8.18 135.19 12.26C137.38 16.34 137.19 20.34 133.56 23.61C130.75 26.12 125.26 26.15 122.44 23.61C118.76 20.37 118.58 16.37 120.76 12.29C122.94 8.21 125.45 4.35 128 0Z" fill="#19649F"/>
<path d="M98.41 0C100.98 4.36 103.36 8.12 105.41 12C107.85 16.55 107.18 21.15 103.74 23.69C102.228 24.8956 100.356 25.5604 98.4222 25.5786C96.4885 25.5967 94.6043 24.9671 93.07 23.79C89.53 21.39 88.82 16.74 91.24 12.18C93.39 8.29 95.78 4.5 98.41 0Z" fill="#19649F"/>
<path d="M39.14 0.0800781C41.68 4.43008 44.25 8.47008 46.44 12.7001C48.63 16.9301 47.79 21.5701 44.35 23.8401C40.7 26.2701 36.72 26.3501 33.3 23.4901C29.56 20.3501 29.6 16.2601 31.81 12.2401C34.02 8.22008 36.56 4.34008 39.14 0.0800781Z" fill="#19649F"/>
<path d="M68.68 0C71.33 4.53 73.68 8.36 75.83 12.27C78.14 16.38 77.83 20.27 74.33 23.58C71.58 26.14 66.1 26.16 63.24 23.71C59.5 20.5 59.36 16.51 61.48 12.44C63.6 8.37 66.08 4.45 68.68 0Z" fill="#19649F"/>
<path d="M81.3799 170.6C81.3799 158.15 81.3799 145.7 81.4699 133.25C81.4699 132.39 82.8199 131.54 83.5399 130.68C84.2699 131.53 85.6299 132.37 85.6399 133.23C85.7799 145.04 85.7899 156.85 85.6399 168.66C85.6399 169.72 83.9499 170.75 83.0499 171.79L81.3799 170.6Z" fill="#19649F"/>
<path d="M78.77 173.36H88.31V181.89H78.77V173.36Z" fill="#19649F"/>
<path d="M88.7 77.1601H78.49C79.49 73.8301 80.36 70.5901 81.49 67.4301C81.78 66.6001 82.86 65.5001 83.56 65.5101C84.26 65.5201 85.31 66.6201 85.61 67.5101C86.72 70.5201 87.61 73.6801 88.7 77.1601Z" fill="#19649F"/>
<path d="M92.4 80.9999H75.72C77.54 77.5299 88 77.0799 92.4 80.9999Z" fill="#19649F"/>
</svg>
