<svg width="100%" height="100%" viewBox="0 0 200 229" fill="none" xmlns="http://www.w3.org/2000/svg">
<g style="mix-blend-mode:multiply" clip-path="url(#clip0)">
<path d="M199.58 12.7101V125.71H193.7C135.567 125.71 77.4333 125.71 19.3 125.71C17.3132 125.576 15.3176 125.741 13.38 126.2C6.09996 128.52 5.59996 129.37 5.59996 137.2C5.59996 165.867 5.59996 194.533 5.59996 223.2C5.70907 224.535 5.65872 225.877 5.44996 227.2C5.31116 227.608 5.07445 227.975 4.76061 228.269C4.44677 228.564 4.06539 228.777 3.64996 228.89C3.06996 228.89 2.02996 227.89 1.89996 227.23C1.71227 225.744 1.66874 224.244 1.76996 222.75C1.76996 153.29 1.74663 83.8301 1.69996 14.3701C1.68996 12.0701 0.579963 9.92011 0.319963 7.72011C0.0599628 5.52011 -0.330037 3.00011 0.499963 1.11011C0.899963 0.190106 4.99996 -0.409894 5.58996 0.330106C6.91996 1.94011 7.15996 4.49011 7.67996 6.70011C7.78996 7.16011 7.18996 7.78011 6.25996 9.70011C11.6 10.8001 16.31 12.6001 21.03 12.6201C78.5 12.8201 135.96 12.7501 193.43 12.7501L199.58 12.7101ZM95.42 122.82V80.1301H15.74V87.0001H54C52 88.4301 51 89.1901 49.92 89.8401C40.8466 95.4134 31.7533 100.957 22.64 106.47C14.42 111.47 13.95 112.63 16.12 123C20.31 123 24.62 122.78 28.9 123.06C33.7072 123.385 38.4838 122.081 42.46 119.36C52.69 112.81 63.2 106.71 73.6 100.44C78.24 97.6401 82.9 94.8601 88.4 91.5601V122.82H95.42ZM88.26 46.3301C86.01 45.0901 84.56 44.3301 83.19 43.5301C70.19 35.6901 56.9 28.4001 44.48 19.7901C35.23 13.3801 25.66 15.3601 16 15.1301C14.06 26.1301 14.31 26.6901 22.71 31.7801C31.11 36.8701 39.54 41.9301 47.94 47.0001C49.53 48.0001 51.06 49.0001 52.62 50.0001L52.21 51.0001H15.72V57.6201H95.47V15.2701H88.27L88.26 46.3301ZM124.82 122.71V91.8701C127.01 93.0901 128.59 93.8701 130.11 94.8701C142.49 102.35 155.35 109.18 167.11 117.57C176.71 124.43 186.72 122.85 196.89 122.86C198.62 115.13 197.49 109.71 189.75 105.86C180.38 101.26 171.75 95.2101 162.75 89.7601C161.75 89.1501 160.86 88.3501 158.75 86.7601H197V80.2101H117.5V122.7L124.82 122.71ZM117.53 57.7101H197V50.7101H158.86C170.28 43.8101 180.37 37.7101 190.48 31.6001C198.18 26.9601 199.04 24.7301 196.48 14.9701C192.82 14.9701 189 15.2401 185.23 14.9101C179.49 14.4001 174.66 16.0201 169.81 19.1201C157.88 26.7201 145.66 33.8501 133.56 41.1201L124.67 46.4701V15.2901H117.5L117.53 57.7101ZM5.88996 11.4001V126.87C10.96 125.78 13.32 123.77 13.26 118.14C12.9533 85.3734 12.9533 52.6068 13.26 19.8401C13.33 14.1001 10.9 12.2601 5.88996 11.4001Z" fill="#1964A0"/>
</g>
<defs>
<clipPath id="clip0">
<rect width="199.58" height="228.77" fill="white"/>
</clipPath>
</defs>
</svg>
