<svg width="100%" height="100%" viewBox="0 0 116 137" fill="none" xmlns="http://www.w3.org/2000/svg">
<g style="mix-blend-mode:multiply" clip-path="url(#clip0)">
<path d="M26.4802 71.6299L63.6702 73.6299C52.3702 78.2699 14.8202 77.3999 6.44019 68.9999H25.4402C25.4402 58.3199 25.7402 47.9999 25.3502 37.7799C25.0002 28.3499 24.0002 18.8999 23.0702 9.45992C22.7902 6.71992 23.5602 5.33992 26.0702 4.78992C32.5802 3.41992 39.0002 1.47992 45.5802 0.819917C61.0602 -0.740083 76.4802 -0.260083 91.6502 3.92992C95.9102 5.09992 97.1402 6.83992 96.9302 11.4699C96.1102 29.0699 95.9302 46.6999 95.5502 64.3199C95.5502 65.3199 95.5502 66.3199 95.4702 67.3199C95.4702 67.5399 95.0402 67.7199 94.3002 68.3199L93.0002 60.6099H27.1202L26.4802 71.6299ZM76.5902 2.83992V59.0499L85.0002 58.2799V4.32992L76.5902 2.83992Z" fill="#042080"/>
<path d="M60.2901 122C66.9601 116.09 69.62 115.83 76.96 120.15C78.96 121.33 80.87 123.23 82.96 123.52C86.73 124.03 90.6401 123.52 94.7501 123.52C94.8601 127.79 92.16 131.64 87.42 134.17C79.61 138.33 70.59 136.73 59.98 129.42C51.83 136.11 42.7901 138.71 32.7301 134.11C27.8201 131.86 25.8101 127.92 25.9901 121.76C31.7601 127.1 36.8001 124.26 41.9301 121.07C50.6301 115.71 52.59 115.86 60.2901 122Z" fill="#042080"/>
<path d="M115.12 73.08C111.35 73.08 107.69 72.47 104.3 73.19C90.3001 76.13 76.5701 80.19 62.5201 82.48C45.3101 85.31 28.0001 84 11.0001 80.11C8.23212 79.5569 5.59502 78.481 3.2301 76.94C1.5901 75.79 -0.129898 73.28 0.000101514 71.52C0.130102 69.76 2.1801 66.97 3.9101 66.52C8.04404 65.476 12.33 65.1713 16.5701 65.62L3.9401 68.15L3.5401 70.51C6.7801 72.06 9.8801 74.11 13.2901 75.07C32.7101 80.55 52.1501 78.68 71.5601 74.72C80.5601 72.9 89.4801 71.07 98.4901 69.58C102.114 69.0654 105.784 68.9648 109.43 69.28C112.23 69.46 114.9 70.49 115.12 73.08Z" fill="#042080"/>
<path d="M74.8701 82.6398C85.2701 79.9298 95.6701 77.1998 106.08 74.5298C107.333 74.0765 108.688 73.9863 109.99 74.2698C111.474 74.8022 112.724 75.8393 113.52 77.1998C113.83 77.8498 112.52 79.9798 111.45 80.4298C108.45 81.7298 105.24 83.2198 102.06 83.3598C93.0601 83.7498 83.9401 83.4998 74.8801 83.4998L74.8701 82.6398Z" fill="#042080"/>
<path d="M76.5901 2.83984L85.0001 4.32984V58.2798L76.5701 59.0498L76.5901 2.83984Z" fill="#042080"/>
</g>
<defs>
<clipPath id="clip0">
<rect width="115.12" height="136.46" fill="white"/>
</clipPath>
</defs>
</svg>
