<svg width="100%" height="100%" viewBox="0 0 206 199" fill="none" xmlns="http://www.w3.org/2000/svg">
<g style="mix-blend-mode:multiply" clip-path="url(#clip0)">
<path d="M65.2002 87.11C65.7602 69.79 65.5202 52.61 70.3102 35.93C71.461 32.2929 72.9334 28.7657 74.7102 25.39C81.8002 11.05 106.98 10.76 113.39 25.69C116.991 34.2249 119.52 43.1731 120.92 52.33C122.53 62.64 122.49 73.23 122.92 83.71C122.97 85.08 121.51 87.49 120.34 87.77C105.39 91.47 81.3602 91.11 65.2002 87.11Z" fill="#104A86"/>
<path d="M124.34 84.65C124.34 79.75 124.7 75.45 124.27 71.23C123.11 59.84 122.38 48.33 120.07 37.16C117.07 22.8 111.66 17.41 98.6802 12.63V2C112.139 2.95007 124.847 8.55793 134.62 17.86C148.44 30.76 154.62 47.34 156.98 65.63C157.034 66.4164 156.926 67.2056 156.663 67.9487C156.4 68.6918 155.987 69.3729 155.45 69.95C146.94 77.77 136.58 81.86 124.34 84.65Z" fill="#104A86"/>
<path d="M89.2202 2.26989C89.2902 3.65989 89.2202 4.80989 89.4202 5.93989C90.0802 10.5299 89.0102 13.3699 83.8002 14.8699C77.1602 16.7899 72.8002 22.3199 71.0602 28.6499C68.2165 39.3533 65.9895 50.2112 64.3902 61.1699C63.2502 68.6799 63.3902 76.3899 62.9802 84.4899C51.7002 81.8999 41.3202 77.9199 32.8002 70.0599C32.2874 69.5599 31.8792 68.9629 31.5994 68.3036C31.3195 67.6444 31.1736 66.9361 31.1702 66.2199C33.7902 35.9999 52.8602 6.39989 87.6302 2.13989C88.1626 2.14469 88.694 2.18813 89.2202 2.26989Z" fill="#104A86"/>
<path d="M113.9 91.91C129 85 146.39 82.28 159.84 68.48C167.94 74.22 176.57 79.48 184.17 85.98C191.04 91.83 189.45 97.77 180.59 98.98C170.758 100.378 160.795 100.6 150.91 99.64C139.1 98.38 127.49 95.2 115.8 92.8C115.123 92.6078 114.481 92.3073 113.9 91.91Z" fill="#104A86"/>
<path d="M28.4101 68.7C41.4301 82.21 58.9401 85 74.4901 92C71.5801 92.86 68.1701 94 64.6901 94.87C60.9901 95.81 57.2501 96.63 53.4901 97.31C39.7101 99.8 25.8901 102 11.8401 100C7.46008 99.4 2.11008 99.37 0.42008 94.45C-1.43992 89.05 3.23008 85.81 6.85008 83.14C13.7801 78 21.1401 73.52 28.4101 68.7Z" fill="#104A86"/>
<path d="M91.37 13.07C91.37 9.34 91.11 6.34 91.49 3.43C91.65 2.19 93.18 1.14 94.09 0C94.89 1.22 96.22 2.37 96.39 3.67C96.6081 6.62497 96.6448 9.59053 96.5 12.55L91.37 13.07Z" fill="#104A86"/>
<path d="M201.75 167.13C205.51 169.29 205.8 172.75 204.89 176.38C203.6 181.48 202.64 186.81 200.4 191.49C197.4 197.68 191.65 199.68 184.86 198.29C177.21 196.72 171.03 192.47 165.96 186.92C159.26 179.59 153.16 171.71 146.49 163.68L155.28 155.77C160.61 161.64 165.69 167.31 170.85 172.89C174.2 176.52 175.62 176.17 177.2 171.48C177.62 170.22 177.9 168.92 178.31 167.66C178.66 166.56 179.09 165.49 179.63 164.03L184.4 164.47L201.75 167.13Z" fill="#104A86"/>
<path d="M147.34 155.79L143.25 158.07C140.56 154.83 137.92 151.45 135.06 148.28C128.77 141.28 122.19 134.79 112.14 133.58C111.29 133.48 110.62 131.91 108.96 129.97C127.8 130.1 139.49 140.52 151.12 151.18L147.18 156L147.34 155.79Z" fill="#104A86"/>
<path d="M201.75 167.13L184.38 164.46L179.27 161.67C181.69 160.59 183.39 159.1 184.82 159.33C190.651 160.286 196.428 161.541 202.13 163.09C203.22 163.38 203.88 165.26 204.74 166.4L201.75 167.13Z" fill="#104A86"/>
<path d="M147.18 156L153.28 152.33C154.36 155.47 149.59 160.56 143.36 162.02L147.36 155.84L147.18 156Z" fill="#104A86"/>
</g>
<defs>
<clipPath id="clip0">
<rect width="205.32" height="198.71" fill="white"/>
</clipPath>
</defs>
</svg>
