<svg width="100%" height="100%" viewBox="0 0 205 80" fill="none" xmlns="http://www.w3.org/2000/svg">
<g style="mix-blend-mode:multiply" clip-path="url(#clip0)">
<path d="M199.44 58.46C195.27 58.16 192.32 59.94 191.92 63.39C189.97 59.9 188.58 54.39 185.05 51.9C181.52 49.41 175.66 48.9 170.89 49.04C162.89 49.31 159.37 54.85 158.74 66.25H61C56.5799 55 54 53.54 39.58 53.54C31.18 53.54 27.58 56.09 24.15 64.79C22.68 64.62 21.0599 64.56 19.49 64.22C14 63 8.50995 61.74 2.99995 60.49C-0.32005 59.73 -0.88005 57.6 1.18995 54.67C2.10466 53.3952 2.6669 51.9016 2.81995 50.34C3.37995 41.34 5.60995 32.17 11.9599 26.34C18.3099 20.51 22.2 12.87 28.37 7.34005C32.09 4.00005 37.6199 1.28005 42.5 0.930047C69.8199 -0.999953 97.0999 -0.069953 124.07 5.23005C127.22 6.02445 130.102 7.64321 132.42 9.92005C135.92 13.2 139.42 16.81 141.71 20.92C145.1 27.05 150.13 28.21 156.42 28.81C168.32 30 180.18 31.78 192 33.68C198.93 34.8 202.82 40.58 201.81 47.56C201.3 51.1 200.3 54.57 199.44 58.46ZM69.9399 27.71H99.6399V10.44H69.9399V27.71ZM31.7999 27.66C41.7999 27.66 51.03 27.66 60.29 27.66C61.08 27.66 61.87 27.5 63.29 27.34C63.29 24.34 63.29 21.6 63.29 18.83C63.29 15.89 63.29 12.95 63.29 10.14C44.59 6.85005 38.63 10.09 31.79 27.66H31.7999ZM136.2 28.56C134.86 17.05 123.61 10.88 106.1 12.09C106.1 16.63 105.92 21.25 106.24 25.84C106.31 26.84 108.24 28.41 109.29 28.43C118.25 28.64 127.22 28.55 136.19 28.55L136.2 28.56ZM38.63 34.19L38.72 36.62C49.34 36.62 59.9799 36.31 70.5799 36.81C73.6499 36.95 76.6399 39.35 79.5799 40.81C81.09 41.56 82.4999 43.35 83.91 43.31C99.7999 42.79 115.67 41.99 131.55 41.31C116.783 40.9434 102.01 40.84 87.2299 41C84.16 41 82.1499 40.39 80.0999 37.83C78.3775 35.8322 75.9468 34.581 73.3199 34.34C61.7699 34 50.2 34.19 38.63 34.19Z" fill="#0F4884"/>
<path d="M175 49.77C178.56 51.22 183.55 51.7 185.35 54.34C188.1 58.34 189.28 63.81 189.93 68.81C190.54 73.5 181.26 79.54 174.71 79.44C168.35 79.34 160.04 73.7 160 69.44C159.94 55.59 163.79 50.65 175 49.77ZM174.74 72.88C176.067 72.9081 177.387 72.6697 178.621 72.1789C179.855 71.6881 180.977 70.9548 181.923 70.0225C182.868 69.0901 183.617 67.9776 184.125 66.7508C184.633 65.524 184.89 64.2078 184.88 62.88C184.897 60.2172 183.856 57.6567 181.985 55.7616C180.115 53.8666 177.568 52.7923 174.905 52.775C172.242 52.7578 169.682 53.799 167.787 55.6697C165.892 57.5404 164.817 60.0872 164.8 62.75C164.752 64.0796 164.976 65.4051 165.458 66.6452C165.94 67.8853 166.67 69.014 167.603 69.9622C168.537 70.9105 169.654 71.6583 170.886 72.16C172.118 72.6617 173.44 72.9067 174.77 72.88H174.74Z" fill="#0F4884"/>
<path d="M33.93 55.9199C31 63.0799 31.67 67.5399 35.74 70.8099C37.5336 72.1757 39.7257 72.9153 41.98 72.9153C44.2344 72.9153 46.4265 72.1757 48.22 70.8099C52.45 67.4599 53.03 63.4199 50.29 56.4499C57.62 58.6999 60.03 64.7099 56.22 71.2399C54.959 73.3469 53.2459 75.1476 51.2045 76.5123C49.1631 77.8769 46.8442 78.7713 44.4152 79.131C41.9862 79.4907 39.5076 79.3067 37.1583 78.5924C34.809 77.878 32.6476 76.651 30.83 74.9999C23.72 68.5799 24.8 60.7199 33.93 55.9199Z" fill="#0F4884"/>
<path d="M48.4199 62.51C45.5899 64.83 43.7799 67.39 42.4199 67.18C40.6599 66.92 39.2399 64.4 37.6699 62.85C39.1199 61.43 40.4599 59.04 42.0599 58.85C43.6599 58.66 45.4599 60.7 48.4199 62.51Z" fill="#0F4884"/>
<path d="M199 68.8001L194 63.5101C195.59 62.5101 197.07 60.9101 198.78 60.6201C201.3 60.2001 204.78 60.2101 204.41 64.0101C204.34 65.4301 201.61 66.6201 199 68.8001Z" fill="#0F4884"/>
<path d="M174.82 56.6201C176.91 59.5101 179.13 61.2401 178.97 62.7201C178.79 64.4201 176.5 65.8901 175.13 67.4701C173.52 65.9101 171.13 64.5801 170.58 62.7201C170.24 61.5301 172.68 59.5401 174.82 56.6201Z" fill="#0F4884"/>
</g>
<defs>
<clipPath id="clip0">
<rect width="204.48" height="79.43" fill="white"/>
</clipPath>
</defs>
</svg>
